<svg width="946" height="862" viewBox="0 0 946 862" fill="none" xmlns="http://www.w3.org/2000/svg">
<g clip-path="url(#clip0_23_2)">
<path d="M609.096 242.007C604.082 236.368 598.039 231.845 591.327 228.707C584.615 225.57 577.371 223.882 570.026 223.744C562.681 223.606 555.384 225.021 548.57 227.905C541.755 230.788 535.562 235.081 530.359 240.529L253.092 531.781C245.767 539.458 235.846 543.777 225.499 543.793C215.151 543.81 205.218 539.522 197.871 531.868L156.807 488.819C151.73 483.484 145.702 479.252 139.068 476.365C132.434 473.477 125.323 471.991 118.142 471.991C110.961 471.991 103.85 473.477 97.2155 476.365C90.5812 479.252 84.5535 483.484 79.4767 488.819L0 572.395H891V560.48L609.096 242.007Z" fill="#F0F0F0"/>
<path d="M606.62 727.587C653.474 712.095 699.546 712.093 743.555 727.583L744.07 725.968C699.729 710.361 653.321 710.36 606.133 725.963L606.62 727.587Z" fill="#E4E4E4"/>
<path d="M117.79 689.268C164.644 673.775 210.715 673.773 254.724 689.263L255.239 687.648C210.899 672.042 164.49 672.04 117.303 687.643L117.79 689.268Z" fill="#E4E4E4"/>
<path d="M88.1772 341.62C53.272 246.499 72.5752 150.115 131.292 126.34C190.009 102.566 265.905 160.404 300.81 255.525C335.716 350.647 316.412 447.031 257.695 470.806C198.978 494.58 123.082 436.742 88.1772 341.62Z" fill="#34D399"/>
<path d="M262.473 607.5C262.839 607.499 263.192 607.361 263.468 607.109C263.743 606.857 263.924 606.509 263.975 606.129C264.04 605.653 270.362 557.758 264.684 494.104C259.44 435.318 242.601 350.645 192.157 281.104C192.037 280.937 191.886 280.797 191.713 280.691C191.541 280.585 191.35 280.516 191.152 280.488C190.954 280.459 190.753 280.472 190.559 280.526C190.366 280.579 190.185 280.672 190.026 280.8C189.867 280.927 189.734 281.086 189.633 281.267C189.533 281.449 189.468 281.649 189.441 281.857C189.415 282.065 189.427 282.277 189.479 282.479C189.53 282.682 189.619 282.872 189.74 283.039C239.749 351.979 256.452 436.03 261.659 494.401C267.304 557.685 261.031 605.207 260.967 605.679C260.937 605.906 260.953 606.136 261.014 606.356C261.076 606.575 261.182 606.778 261.325 606.95C261.468 607.123 261.644 607.261 261.842 607.356C262.04 607.451 262.255 607.5 262.473 607.5V607.5Z" fill="#3F3D56"/>
<path d="M237.256 373.056C237.577 373.056 237.89 372.95 238.15 372.752C238.41 372.554 238.603 372.275 238.702 371.954C238.802 371.634 238.802 371.288 238.703 370.968C238.604 370.647 238.41 370.368 238.151 370.169C237.968 370.03 219.514 356.062 191.926 345.452C166.423 335.644 127.641 326.752 87.7165 340.1C87.3326 340.228 87.0129 340.511 86.8279 340.887C86.6428 341.263 86.6074 341.701 86.7296 342.104C86.8518 342.508 87.1214 342.843 87.4793 343.038C87.8371 343.232 88.2539 343.269 88.6378 343.141C127.745 330.068 165.823 338.812 190.881 348.449C218.075 358.908 236.185 372.614 236.364 372.751C236.623 372.949 236.936 373.056 237.256 373.056Z" fill="#3F3D56"/>
<path d="M632.986 514.225C574.269 490.45 554.966 394.066 589.871 298.945C624.776 203.823 700.672 145.985 759.389 169.759C818.106 193.534 837.409 289.918 802.504 385.04C767.599 480.161 691.703 537.999 632.986 514.225Z" fill="#34D399"/>
<path d="M628.208 650.919C627.843 650.919 627.49 650.78 627.214 650.528C626.938 650.276 626.757 649.928 626.706 649.548C626.641 649.072 620.319 601.177 625.997 537.523C631.241 478.737 648.08 394.064 698.524 324.524C698.645 324.357 698.796 324.216 698.968 324.11C699.141 324.004 699.331 323.935 699.529 323.907C699.727 323.879 699.929 323.892 700.122 323.945C700.315 323.999 700.496 324.092 700.655 324.219C700.814 324.346 700.947 324.505 701.048 324.686C701.148 324.868 701.214 325.068 701.24 325.276C701.267 325.484 701.254 325.696 701.202 325.899C701.151 326.101 701.062 326.292 700.941 326.458C650.933 395.398 634.229 479.45 629.022 537.821C623.378 601.105 629.65 648.626 629.714 649.099C629.745 649.325 629.728 649.556 629.667 649.775C629.605 649.994 629.499 650.197 629.356 650.37C629.214 650.542 629.037 650.681 628.839 650.776C628.641 650.87 628.426 650.919 628.208 650.919Z" fill="#3F3D56"/>
<path d="M653.425 416.475C653.104 416.476 652.791 416.369 652.531 416.171C652.272 415.973 652.078 415.694 651.979 415.373C651.88 415.053 651.879 414.708 651.979 414.387C652.078 414.066 652.271 413.787 652.53 413.589C652.714 413.449 671.167 399.482 698.755 388.871C724.259 379.063 763.04 370.172 802.965 383.519C803.155 383.582 803.332 383.684 803.485 383.82C803.638 383.955 803.764 384.12 803.856 384.306C803.948 384.493 804.004 384.696 804.021 384.905C804.038 385.114 804.015 385.325 803.955 385.525C803.894 385.725 803.797 385.91 803.668 386.07C803.539 386.231 803.381 386.363 803.204 386.459C803.026 386.555 802.832 386.614 802.633 386.631C802.434 386.648 802.234 386.624 802.043 386.56C762.937 373.487 724.858 382.231 699.8 391.868C672.606 402.327 654.496 416.033 654.317 416.17C654.058 416.369 653.745 416.476 653.425 416.475Z" fill="#3F3D56"/>
<path d="M707.199 718.734C707.277 718.489 714.831 693.939 701.462 672.032L700.097 672.951C713.038 694.157 705.736 717.959 705.661 718.196L707.199 718.734Z" fill="#E4E4E4"/>
<path d="M692.44 675.811C692.819 677.223 693.458 678.542 694.322 679.694C695.186 680.846 696.258 681.807 697.476 682.524C698.694 683.241 700.034 683.699 701.42 683.871C702.806 684.044 704.212 683.928 705.555 683.53C708.269 682.727 710.568 680.825 711.946 678.241C712.628 676.962 713.064 675.554 713.228 674.097C713.393 672.641 713.282 671.165 712.904 669.754C711.311 663.818 701.669 649.092 696.018 650.765C690.367 652.438 690.848 669.875 692.44 675.811Z" fill="#E4E4E4"/>
<path d="M693.839 703.405C698.966 709.225 708.138 709.067 708.138 709.067C708.138 709.067 708.997 699.473 703.871 693.654C698.744 687.834 689.572 687.992 689.572 687.992C689.572 687.992 688.712 697.585 693.839 703.405Z" fill="#E4E4E4"/>
<path d="M172.972 677.009C173.049 676.763 180.603 652.213 167.234 630.306L165.869 631.225C178.81 652.431 171.509 676.233 171.433 676.471L172.972 677.009Z" fill="#E4E4E4"/>
<path d="M157.675 633.456C157.962 634.892 158.515 636.254 159.304 637.465C160.093 638.676 161.101 639.712 162.271 640.513C163.44 641.315 164.749 641.866 166.122 642.136C167.495 642.406 168.905 642.389 170.271 642.086C171.638 641.784 172.934 641.201 174.087 640.372C175.239 639.542 176.224 638.483 176.986 637.253C177.748 636.024 178.272 634.649 178.528 633.206C178.784 631.764 178.767 630.283 178.478 628.848C177.266 622.813 166.995 607.796 161.251 609.068C155.506 610.341 156.463 627.422 157.675 633.456Z" fill="#E4E4E4"/>
<path d="M159.611 661.679C164.738 667.499 173.91 667.341 173.91 667.341C173.91 667.341 174.77 657.748 169.643 651.928C164.516 646.108 155.344 646.266 155.344 646.266C155.344 646.266 154.485 655.86 159.611 661.679Z" fill="#E4E4E4"/>
<path d="M626.643 649.492C626.643 649.492 525.31 422.981 412.628 457.894C299.946 492.808 377.77 674.187 377.77 674.187L626.643 649.492Z" fill="#CACACA"/>
<path d="M628.435 655.107L614.654 635.522L475.219 587.835L240.767 612.024L240.184 621.471L314.708 702.794L628.435 655.107Z" fill="#3F3D56"/>
<path d="M479.922 715.55H472.548L469.04 685.673H479.923L479.922 715.55Z" fill="#A0616A"/>
<path d="M481.803 713.022L467.281 713.021H467.28C464.826 713.021 462.472 714.045 460.736 715.868C459.001 717.691 458.025 720.164 458.025 722.742V723.058L481.802 723.059L481.803 713.022Z" fill="#2F2E41"/>
<path d="M508.467 699.683L514.441 704.223L533.957 682.178L525.14 675.477L508.467 699.683Z" fill="#A0616A"/>
<path d="M502.753 704.607L522.016 719.249L522.193 718.993C523.631 716.904 524.221 714.3 523.833 711.754C523.444 709.209 522.109 706.929 520.12 705.418L520.12 705.418L508.354 696.475L502.753 704.607Z" fill="#2F2E41"/>
<path d="M500.396 583.543C500.396 583.543 508.133 577.455 516.498 583.543L522.288 634.27H504.903L502.328 618.037L496.533 593.688L500.396 583.543Z" fill="#2F2E41"/>
<path d="M482.979 661.887L514.181 651.185L529.055 663.583L513.254 688.959L521.518 700.344L521.755 700.062C522.78 698.835 546.866 669.921 546.797 661.721C546.618 656.157 545.723 650.644 544.137 645.332L536.312 633.666L525.207 630.236L488.443 635.656L488.383 635.665L473.529 645.162C472.059 646.154 470.82 647.48 469.903 649.042C468.987 650.604 468.415 652.363 468.232 654.188C467.594 660.218 466.312 708.512 466.299 708.999L466.29 709.316H482.334L482.979 661.887Z" fill="#2F2E41"/>
<path d="M502.769 649.77C508.191 647.238 515.117 637.353 516.259 635.686C518.49 636.962 534.763 646.097 539.35 643.749C540.017 644.135 543.028 646.023 543.571 648.871L543.707 649.586L544.1 648.986C544.173 648.875 551.24 637.836 542.097 630.975C533.76 624.72 531.518 618.401 531.283 617.678L535.806 592.564L535.687 592.448C535.316 592.086 526.51 583.575 518.476 582.563L513.519 581.645L513.302 601.466V626.841C509.298 626.312 502.962 581.975 502.962 581.975L499.651 583.249C498.796 583.422 489.182 585.439 486.63 589.459L486.547 589.59L495.292 614.424L497.849 618.468V623.646L482.909 637.293L483.121 637.526C483.63 638.086 494.647 650.123 501.065 650.121C501.65 650.131 502.23 650.011 502.769 649.77Z" fill="#2F2E41"/>
<path d="M508.464 576.58C500.508 576.58 494.059 569.805 494.059 561.449C494.059 553.092 500.508 546.318 508.464 546.318C516.419 546.318 522.868 553.092 522.868 561.449C522.868 569.805 516.419 576.58 508.464 576.58Z" fill="#A0616A"/>
<path d="M512.091 654.276C511.987 653.416 511.706 652.591 511.266 651.859C510.827 651.126 510.24 650.503 509.546 650.035C508.853 649.566 508.07 649.263 507.253 649.146C506.436 649.03 505.604 649.103 504.817 649.361L496.561 638.964L489.323 642.694L501.178 657.203C501.678 658.564 502.635 659.684 503.869 660.353C505.103 661.022 506.527 661.192 507.872 660.831C509.217 660.47 510.39 659.603 511.167 658.395C511.945 657.187 512.273 655.721 512.091 654.276V654.276Z" fill="#A0616A"/>
<path d="M506.255 645.46L493.303 627.092L496.511 608.894L491.306 588.391L491.175 588.332C491.07 588.285 488.579 587.182 486.683 588.008C486.295 588.177 485.944 588.427 485.653 588.745C485.362 589.063 485.137 589.44 484.992 589.854C483.704 593.238 480.597 627.702 480.465 629.227C480.492 629.506 481.13 636.079 482.427 638.804C483.718 641.516 495.493 655.2 495.993 655.782L496.2 656.022L506.255 645.46Z" fill="#2F2E41"/>
<path d="M496.09 557.554C500.885 563.889 509.103 562.728 515.678 560.41C515.295 565.481 516.606 570.534 519.385 574.7C518.536 571.107 522.113 570.392 524.201 569.055C525.004 567.987 524.337 566.392 524.666 565.075C528.414 560.459 530.898 556.977 526.087 551.56C523.271 547.6 519.89 542.656 514.524 543.696C510.278 538.493 503.32 539.846 498.573 543.486C496.439 545.145 494.497 547.061 492.788 549.196C493.335 552.005 494.352 554.689 495.793 557.124" fill="#2F2E41"/>
<path d="M443.433 664.82L318.356 684.486L241.343 612.105C241.343 612.105 277.823 454.568 409.15 443.498C540.478 432.428 635.326 655.533 635.326 655.533L621.572 656.151C621.572 656.151 550.206 482.669 452.926 477.56C355.647 472.451 443.433 664.82 443.433 664.82Z" fill="#E4E4E4"/>
<path d="M418.708 503.452H501.396C505.911 503.452 510.241 501.568 513.434 498.214C516.626 494.861 518.42 490.312 518.42 485.569C518.42 480.827 516.626 476.278 513.434 472.925C510.241 469.571 505.911 467.687 501.396 467.687H418.708C414.193 467.687 409.863 469.571 406.67 472.925C403.478 476.278 401.684 480.827 401.684 485.569C401.684 490.312 403.478 494.861 406.67 498.214C409.863 501.568 414.193 503.452 418.708 503.452Z" fill="#CACACA"/>
<path d="M339.791 611.182C340.489 610.741 341.086 610.145 341.541 609.436C341.996 608.726 342.297 607.921 342.424 607.076C342.55 606.231 342.499 605.367 342.273 604.545C342.047 603.723 341.653 602.963 341.117 602.319L348.356 526.02L336.269 526.862L332.921 601.994C331.95 603.011 331.368 604.366 331.285 605.804C331.202 607.241 331.624 608.661 332.47 609.793C333.317 610.926 334.53 611.693 335.879 611.949C337.229 612.205 338.62 611.932 339.791 611.182Z" fill="#FFB8B8"/>
<path d="M331.372 523.193L334.541 548.492L334.101 563.997L347.395 565.275L350.059 552.38L351.527 518.239C351.637 515.664 350.815 513.141 349.225 511.178C347.635 509.215 345.395 507.957 342.958 507.66C340.429 507.351 337.886 508.099 335.877 509.742C333.869 511.386 332.556 513.793 332.222 516.444L331.372 523.193Z" fill="#2F2E41"/>
<path d="M382.281 745.79L390.344 745.789L394.18 713.117L382.279 713.117L382.281 745.79Z" fill="#FFB7B7"/>
<path d="M380.224 754L406.225 753.999V753.653C406.225 750.834 405.159 748.13 403.261 746.137C401.363 744.143 398.789 743.023 396.105 743.023H396.104L380.224 743.024L380.224 754Z" fill="#2F2E41"/>
<path d="M315.697 745.79L323.76 745.789L327.597 713.117L315.695 713.117L315.697 745.79Z" fill="#FFB7B7"/>
<path d="M313.64 754L339.641 753.999V753.653C339.641 750.834 338.574 748.13 336.677 746.137C334.779 744.143 332.205 743.023 329.521 743.023H329.52L313.64 743.024L313.64 754Z" fill="#2F2E41"/>
<path d="M347.054 495.634C337.398 495.634 329.57 487.412 329.57 477.269C329.57 467.127 337.398 458.905 347.054 458.905C356.709 458.905 364.537 467.127 364.537 477.269C364.537 487.412 356.709 495.634 347.054 495.634Z" fill="#FFB8B8"/>
<path d="M349.313 503.09L337.18 504.546C334.229 508.942 332.316 514.011 331.599 519.336C330.881 524.66 331.379 530.088 333.051 535.171L342.206 562.99C342.206 562.99 329.498 589.752 329.498 614.599C329.498 639.446 305.295 728.138 305.295 728.138L339.363 731.87L354.228 637.389L374.712 731.49L398.097 727.491L385.217 604.115L376.706 563.506L376.343 543.702C376.343 543.702 379.962 528.843 370.905 519.329L359.847 503.143L349.313 503.09Z" fill="#2F2E41"/>
<path d="M367.434 470.711H341.743V458.948C347.382 456.594 352.9 454.593 356.235 458.948C359.205 458.948 362.053 460.187 364.154 462.393C366.254 464.599 367.434 467.591 367.434 470.711Z" fill="#2F2E41"/>
<path d="M340.321 456.872C324.962 456.872 320.663 477.094 320.663 488.502C320.663 494.864 323.402 497.14 327.707 497.91L329.227 489.394L332.787 498.276C333.996 498.282 335.266 498.258 336.583 498.232L337.79 495.621L340.482 498.185C351.264 498.202 359.977 499.853 359.977 488.502C359.977 477.094 356.207 456.872 340.321 456.872Z" fill="#2F2E41"/>
<path opacity="0.2" d="M363.033 568.566L363.682 538.945L365.405 525.793L369.664 538.82L363.033 568.566Z" fill="black"/>
<path d="M313.486 589.102L341.29 586.606L342.46 503.658L328.905 504.572C328.046 504.633 327.217 504.923 326.494 505.414C325.772 505.906 325.181 506.583 324.777 507.381L306.99 542.827L308.03 583.978C308.065 585.353 308.608 586.658 309.544 587.619C310.481 588.579 311.737 589.119 313.045 589.122C313.192 589.122 313.338 589.116 313.486 589.102Z" fill="#F43F5E"/>
<path d="M375.969 533.715C375.969 515.349 365.326 500.408 352.243 500.408C339.161 500.408 328.518 515.349 328.518 533.715C328.518 552.081 339.161 567.022 352.243 567.022C365.326 567.022 375.969 552.081 375.969 533.715ZM372.865 533.715C372.865 550.283 363.614 563.761 352.243 563.761C340.873 563.761 331.622 550.283 331.622 533.715C331.622 517.147 340.873 503.669 352.243 503.669C363.614 503.669 372.865 517.147 372.865 533.715Z" fill="#F43F5E"/>
<path d="M314.327 584.745L312.499 542.867L331.227 504.41L332.017 504.834L313.395 543.07L315.213 584.702L314.327 584.745Z" fill="#3F3D56"/>
<path d="M359.904 614.265C360.643 613.739 361.263 613.05 361.72 612.245C362.178 611.441 362.462 610.541 362.552 609.608C362.643 608.676 362.538 607.734 362.244 606.849C361.951 605.964 361.476 605.157 360.854 604.486L364.455 520.558L351.279 522.234L351.868 604.642C350.863 605.815 350.303 607.334 350.294 608.912C350.284 610.49 350.826 612.017 351.817 613.203C352.807 614.389 354.178 615.152 355.668 615.348C357.159 615.544 358.666 615.159 359.904 614.265Z" fill="#FFB8B8"/>
<path d="M345.714 518.526L350.613 546.006L351.009 562.997L365.625 563.566L367.81 549.291L367.484 511.848C367.459 509.024 366.417 506.314 364.566 504.266C362.715 502.217 360.194 500.982 357.51 500.808C354.726 500.628 351.986 501.605 349.882 503.529C347.777 505.452 346.477 508.167 346.262 511.089L345.714 518.526Z" fill="#2F2E41"/>
<path d="M557.897 643.621C558.734 643.619 559.537 643.274 560.136 642.66C560.734 642.046 561.082 641.211 561.104 640.333L561.768 614.024L550.397 591.362C550.138 590.851 549.761 590.418 549.299 590.104C548.837 589.79 548.307 589.605 547.758 589.566L539.092 588.981L539.84 642.013L557.615 643.609C557.71 643.617 557.804 643.621 557.897 643.621Z" fill="#F43F5E"/>
<path d="M532.837 629.492C541.201 629.492 548.006 619.94 548.006 608.198C548.006 596.456 541.201 586.904 532.837 586.904C524.473 586.904 517.669 596.456 517.669 608.198C517.669 619.939 524.473 629.492 532.837 629.492ZM532.837 588.988C540.107 588.988 546.021 597.606 546.021 608.198C546.021 618.79 540.107 627.407 532.837 627.407C525.567 627.407 519.653 618.79 519.653 608.198C519.653 597.606 525.567 588.988 532.837 588.988Z" fill="#F43F5E"/>
<path d="M557.078 640.823L558.247 614.048L546.273 589.462L545.768 589.733L557.674 614.179L556.512 640.796L557.078 640.823Z" fill="#3F3D56"/>
<path d="M496.911 661.344C497.005 661.381 497.101 661.407 497.2 661.422L509.336 663.201C509.63 663.245 509.929 663.183 510.185 663.025C510.44 662.867 510.637 662.622 510.742 662.331L521.188 633.778C521.256 633.593 521.285 633.395 521.273 633.198C521.261 633 521.209 632.807 521.12 632.633C521.031 632.458 520.907 632.306 520.757 632.186C520.607 632.067 520.434 631.982 520.25 631.939H520.25L508.837 629.264C508.749 629.243 508.664 629.21 508.584 629.167L497.483 623.07C497.398 623.023 497.307 622.986 497.213 622.96L484.997 619.539C484.685 619.451 484.352 619.488 484.063 619.642C483.775 619.797 483.551 620.058 483.435 620.376L474.327 645.272C474.247 645.489 474.221 645.724 474.251 645.954C474.281 646.185 474.366 646.403 474.499 646.59L477.649 651.033C477.797 651.242 477.999 651.403 478.231 651.496L485.115 654.275C485.164 654.295 485.212 654.319 485.258 654.347L496.729 661.253C496.788 661.288 496.849 661.318 496.911 661.344Z" fill="white"/>
<path d="M491.265 623.345L492.816 623.78L496.927 624.932L496.935 624.933L502.563 628.025L504.651 629.172L504.652 629.172L507.789 630.895L507.875 630.916L511.134 631.679L512.709 632.049L519.133 633.554L509.048 661.118L502.429 660.148L500.806 659.909L497.346 659.402L497.306 659.396L486.19 652.704L479.426 649.973L476.338 645.617L485.116 621.624L491.265 623.345Z" fill="#E4E4E4"/>
<path d="M483.67 625.577L517.112 639.077L516.54 640.642L483.098 627.142L483.67 625.577Z" fill="white"/>
<path d="M481.761 630.795L515.203 644.295L514.631 645.86L481.189 632.36L481.761 630.795Z" fill="white"/>
<path d="M477.905 641.335L511.347 654.835L510.774 656.4L477.332 642.9L477.905 641.335Z" fill="white"/>
<path d="M491.266 623.346L481.253 650.711L482.743 651.312L492.816 623.78L491.266 623.346Z" fill="white"/>
<path d="M502.562 628.025L504.619 634.033L505.331 636.117L506.994 640.981L507.351 642.02L507.708 643.065L508.177 644.437L511.547 654.289L512.423 651.895L509.675 643.859L509.053 642.04L508.962 641.776L508.227 639.625L507.3 636.912L506.586 634.828L504.653 629.173L504.651 629.172L502.562 628.025Z" fill="white"/>
<path d="M511.134 631.679L500.806 659.909L502.429 660.148L512.709 632.048L511.134 631.679Z" fill="white"/>
<path d="M507.105 658.699C507.209 657.839 507.49 657.014 507.929 656.281C508.369 655.549 508.956 654.926 509.65 654.457C510.343 653.989 511.126 653.685 511.943 653.569C512.76 653.453 513.592 653.526 514.379 653.783L522.635 643.387L529.873 647.117L518.017 661.626C517.518 662.987 516.56 664.107 515.327 664.776C514.093 665.444 512.669 665.614 511.324 665.253C509.979 664.893 508.806 664.026 508.029 662.818C507.251 661.61 506.923 660.144 507.105 658.698V658.699Z" fill="#A0616A"/>
<path d="M523.108 656.836C523.846 656.254 541.214 642.542 543.155 638.466C545.098 634.383 544.616 622.292 544.591 621.742C544.561 621.552 541.537 602.658 538.98 595.941C536.326 588.972 529.651 591.683 529.584 591.711L529.382 591.796L532.288 627.415L516.435 649.506L522.894 657.005L523.108 656.836Z" fill="#2F2E41"/>
<path d="M820.339 480.28V459.888C821.516 460.957 822.394 465.116 822.394 470.084C822.394 475.052 821.516 479.211 820.339 480.28Z" fill="url(#paint0_radial_23_2)"/>
<path d="M721.377 496.985L746.41 498.225C748.561 499.023 744.505 476.723 744.598 471.263C744.61 470.591 750.101 468.611 750.101 468.611C750.101 468.611 761.301 507.803 757.951 510.331C750.995 515.584 718.208 513.904 718.208 513.904L721.377 496.985Z" fill="#E7B0B0"/>
<path d="M722.957 493.782C722.957 493.782 728.276 493.27 729.402 492.253C731.79 490.099 731.338 484.693 733.1 481.937C733.723 480.964 736.47 480.484 737.504 479.27C738.997 477.518 734.817 473.057 734.817 469.234C734.817 468.122 735.846 466.269 735.846 466.269C735.846 466.269 738.526 457.8 737.155 456.279C734.279 453.085 722.664 454.394 718.662 455.568C715.587 456.47 711.514 462.52 708.634 463.975C707.932 464.33 706.589 463.578 705.256 462.825C703.758 461.979 702.272 461.133 701.725 461.86C700.718 463.201 699.762 470.034 700.591 471.509C702.742 475.331 698.176 489.852 698.176 489.852L722.957 493.782Z" fill="#E7B0B0"/>
<path d="M708.12 476.129C708.3 479.555 710.82 483.375 713.445 485.696C720.46 491.904 729.402 492.253 729.402 492.253C729.402 492.253 729.199 493.338 722.957 493.782C717.172 494.193 699.838 491.809 699.838 491.809L701.987 481.109L704.73 474.627C704.73 474.627 708.079 475.389 708.12 476.129Z" fill="#E7B0B0"/>
<path d="M654.916 649.302C654.916 649.302 651.883 654.329 649.052 663.207C644.467 677.582 645.144 703.647 645.144 703.647L653.613 705.038C653.613 705.038 663.64 670.444 667.132 661.992C668.542 658.576 673.646 648.781 673.646 648.781L654.916 649.302Z" fill="#E7B0B0"/>
<path d="M731.302 631.399C731.302 631.399 729.832 637.079 729.344 639.047C727.835 645.182 726.152 668.735 724.784 674.909C724.277 677.209 739.478 679.084 738.211 676.298C737.499 674.735 737.905 671.053 738.211 669.346C739.785 660.533 752.797 617.493 752.797 617.493L731.302 631.399Z" fill="#E7B0B0"/>
<path d="M676.416 572.821C676.416 572.821 672.716 572.821 668.597 584.641C666.097 591.817 667.26 609.247 665.341 616.624C662.084 629.139 654.916 649.302 654.916 649.302L686.84 654.167L705.041 614.028C705.041 614.028 711.841 619.981 714.221 622.152C721.18 628.504 725.325 623.423 733.623 629.4L753.25 617.851C753.25 617.851 722.028 586.541 719.411 583.25C718.325 581.887 716.153 576.992 716.153 576.992L676.416 572.821Z" fill="#2F2E41"/>
<path d="M698.609 488.432C697.024 488.131 700.342 483.634 699.643 482.084C699.147 480.981 696.013 477.373 695.49 476.286C694.012 473.224 690.938 464.615 693.595 454.04C695.167 447.784 698.101 440.722 705.695 438.422C719.997 434.089 741.384 445.819 740.86 457.097C740.603 462.618 736.925 459.842 737.255 458.934C738.649 455.111 728.633 454.868 726.539 454.804C724.669 454.747 719.67 455.655 716.748 465.262C714.327 473.224 710.348 469.513 710.067 467.797C709.802 466.178 705.712 473.052 705.568 474.996C705.287 478.853 702.178 489.111 698.609 488.432Z" fill="#763432"/>
<path d="M698.175 487.819C698.177 486.635 699.741 484.067 699.742 482.616C699.741 484.067 698.177 486.635 698.175 487.819Z" fill="url(#paint1_radial_23_2)"/>
<path d="M692.55 462.47C692.549 459.962 692.822 457.231 693.519 454.349C692.822 457.231 692.549 459.962 692.55 462.47Z" fill="#E2D7D5"/>
<path d="M701.211 487.106C703.554 484.326 705.319 478.01 705.56 475.092C705.319 478.011 703.554 484.327 701.211 487.106ZM705.564 475.046C705.565 475.029 705.567 475.012 705.568 474.996C705.571 474.954 705.576 474.911 705.582 474.864C705.583 474.865 705.583 474.865 705.584 474.865L705.568 474.996C705.567 475.012 705.565 475.029 705.564 475.046Z" fill="#CE6145"/>
<path d="M698.95 488.464C698.837 488.464 698.723 488.453 698.609 488.431C698.297 488.372 698.175 488.15 698.175 487.819C698.177 486.635 699.741 484.067 699.742 482.616C699.742 482.579 699.741 482.544 699.739 482.509C699.73 482.351 699.699 482.208 699.643 482.084C699.147 480.981 696.013 477.373 695.49 476.286C694.431 474.091 692.551 469.046 692.55 462.47C692.549 459.962 692.822 457.231 693.519 454.349C693.543 454.246 693.569 454.143 693.595 454.04C695.167 447.784 698.101 440.722 705.695 438.422C706.651 438.132 707.641 437.919 708.652 437.768C704.846 438.492 702.042 440.218 700.539 442.155C697.706 445.809 696.062 457.341 697.057 465.412C698.052 473.482 703.15 474.178 704.73 474.627C705.026 474.71 705.315 474.783 705.582 474.864C705.576 474.911 705.571 474.954 705.568 474.996C705.567 475.012 705.565 475.029 705.564 475.046C705.563 475.061 705.562 475.077 705.56 475.092C705.319 478.01 703.554 484.326 701.211 487.106C700.501 487.946 699.738 488.464 698.95 488.464Z" fill="#662C2A"/>
<path d="M734.416 499.258L755.862 505.765C757.802 507.039 778.404 487.456 779.598 482.147C779.745 481.494 787.205 482.296 787.205 482.296C787.205 482.296 765.912 515.004 762.13 516.703C754.277 520.232 727.904 515.051 727.904 515.051L734.416 499.258Z" fill="#E7B0B0"/>
<path d="M727.904 515.688C727.904 515.688 754.277 520.869 762.13 517.34C762.794 517.042 764.419 515.322 766.111 512.455C763.523 516.278 739.196 513.51 735.265 512.88C731.285 512.243 733.673 502.473 734.416 499.895L727.904 515.688Z" fill="#E7B0B0"/>
<path d="M669.966 578.614C673.381 569.657 680.706 548.043 680.706 548.043C680.706 548.043 681.064 500.72 690.016 489.96C694.271 484.845 701.819 486.603 705.77 486.903C712.594 487.421 735.37 499.831 734.416 499.258L727.223 522.704L722.728 522.119C722.728 522.119 723.026 545.056 721.049 566.765C720.474 573.064 720.904 578.02 719.892 582.17C717.808 590.719 712.092 597.03 683.126 589.232C668.166 585.205 668.574 582.262 669.966 578.614Z" fill="#2F2E41"/>
<path d="M657.066 703.915C655.633 702.476 656.064 699.116 656.064 699.116L644.514 698.933C644.514 698.933 643.283 703.584 643.041 707.458C642.865 710.234 643.041 711.399 643.041 715.759H666.98V707.559C663.23 706.486 658.215 705.066 657.066 703.915Z" fill="#31404E"/>
<path d="M671.54 708.806C670.066 708.426 668.503 707.996 666.98 707.559V715.759L675.598 715.064C675.598 715.064 676.308 710.039 671.54 708.806Z" fill="white"/>
<path d="M643.041 718.482H675.598V715.064H643.041V718.482Z" fill="white"/>
<path d="M653.463 708.459C653.463 710.571 651.855 712.283 649.879 712.283C647.904 712.283 646.298 710.571 646.298 708.459C646.298 706.347 647.904 704.635 649.879 704.635C651.855 704.635 653.463 706.347 653.463 708.459Z" fill="#F4F5F5"/>
<path d="M738.854 674.15C737.543 672.586 738.241 669.277 738.241 669.277L726.07 668.046C726.07 668.046 725.144 672.569 724.595 676.409C724.201 679.158 724.28 680.335 723.934 684.677L747.793 689.59L748.446 678.518C744.797 677.107 739.904 675.402 738.854 674.15Z" fill="#31404E"/>
<path d="M754.18 679.953C752.096 679.369 749.93 679.091 748.446 678.518L747.793 689.59L757.482 685.845C757.482 685.845 757.93 681.004 754.18 679.953Z" fill="white"/>
<path d="M723.768 689.59H757.482V685.845L738.779 685.332L723.989 683.985L723.768 689.59Z" fill="white"/>
<path d="M711.891 467.542C712.781 471.161 711.41 474.68 708.831 475.402C706.252 476.125 703.437 473.778 702.547 470.158C701.658 466.54 703.029 463.018 705.611 462.297C708.186 461.574 710.998 463.921 711.891 467.542Z" fill="#E7B0B0"/>
<path d="M708.961 468.018C709.18 468.913 707.761 469.358 707.717 470.41C707.666 471.58 708.955 473.321 708.434 473.468C707.441 473.744 705.317 471.536 704.853 469.646C704.388 467.756 705.332 465.376 706.323 465.099C707.316 464.821 708.496 466.127 708.961 468.018Z" fill="#E7B0B0"/>
<path d="M733.561 466.206C733.644 466.515 731.949 470.29 731.211 470.102C729.226 469.6 727.522 469.958 726.491 470.205C726.491 470.205 725.908 466.872 728.057 466.21C730.21 465.546 733.255 465.077 733.561 466.206Z" fill="#E7B0B0"/>
<path d="M737.753 477.709C737.738 477.757 737.724 477.807 737.728 477.876C737.765 478.593 736.086 478.792 734.855 479.23C733.812 479.601 733.441 479.368 733.306 478.805C733.262 476.89 733.702 476.756 730.787 471.98C728.589 468.379 728.761 468.634 728.821 468.888C728.847 468.996 728.852 469.105 728.645 468.915C727.952 468.279 726.758 466.686 726.608 467.801C726.459 468.916 727.753 469.766 727.753 469.766L727.206 470.031C727.206 472.58 728.101 472.58 729.593 476.88C731.086 481.181 732.317 482.018 731.87 485.044C731.87 485.044 732.446 483.824 732.876 482.333L732.879 482.333C732.95 482.198 733.02 482.062 733.1 481.937C733.723 480.964 736.47 480.484 737.504 479.27C737.84 478.875 737.879 478.339 737.753 477.709Z" fill="#E7B0B0"/>
<path d="M726.527 470.337C726.341 469.402 727.757 469.01 728.645 468.914C729.441 468.828 731.674 468.493 731.944 469.307C732.08 469.709 731.207 470.404 730.825 470.53C730.206 470.732 728.917 470.118 728.274 470.06C727.536 469.994 726.527 470.337 726.527 470.337Z" fill="#2C1414"/>
<path d="M726.595 467.232C725.2 465.609 727.947 465.06 729.019 464.86C729.969 464.682 734.033 464.109 733.802 465.84C733.746 466.262 733.649 466.674 733.253 466.737C732.616 466.841 731.679 466.427 728.729 466.541C727.816 466.575 726.932 467.625 726.595 467.232Z" fill="#602F2B"/>
<path d="M686.906 590.188C686.906 590.188 683.698 614.106 681.041 621.593C673.935 641.608 669.743 651.461 669.743 651.461L654.916 649.302C654.916 649.302 664.027 623.553 665.756 614.594C667.054 607.869 665.915 595.641 667.562 586.383C667.757 585.296 668.883 581.306 668.883 581.306C668.883 581.306 671.413 584.166 676.698 586.924C680.854 589.093 686.906 590.188 686.906 590.188Z" fill="#2F2E41"/>
<path d="M704.428 501.898C701.038 500.621 693.136 499.009 688.908 500.682C686.153 501.773 683.991 505.872 683.815 507.853C683.815 507.858 682.541 517.07 681.813 529.714C681.404 536.85 681.099 548.683 680.067 552.245C674.212 572.464 667.89 580.534 668.481 582.638C669.714 587.032 685.706 589.944 686.907 590.188C689.279 590.671 700.937 522.437 711.982 522.119C715.285 522.023 727.223 522.704 727.223 522.704L730.152 513.415C730.152 513.415 711.005 504.374 704.428 501.898Z" fill="#2F2E41"/>
<path d="M731.302 631.399C731.302 631.399 727.791 642.863 727.469 649.185C727.206 654.329 726.07 668.046 726.07 668.046L732.86 668.733L742.416 627.724L752.429 618.17L731.302 631.399Z" fill="#E7B0B0"/>
<path d="M709.892 608.984C706.983 609.81 703.624 616.949 703.624 616.949L730.349 633.011L750.091 619.709C750.091 619.709 712.238 608.318 709.892 608.984Z" fill="#2F2E41"/>
<path d="M656.775 701.233C657.263 701.523 657.74 701.775 658.323 701.837C659.366 701.95 661.24 701.851 661.627 700.767C661.781 700.339 661.652 700.021 661.515 699.83C661.274 699.492 660.83 699.289 660.435 699.323C659.817 699.384 658.189 700.351 656.775 701.233ZM652.234 700.312C651.773 700.312 651.376 700.473 651.049 700.877C650.745 701.251 650.431 701.767 650.67 702.094C651.092 702.675 652.805 702.715 653.829 702.168C654.126 702.009 654.633 701.691 655.23 701.313C655.005 701.223 654.768 701.118 654.526 701.011C653.632 700.616 652.869 700.312 652.234 700.312ZM654.736 707.463L654.61 707.438C654.422 707.363 654.328 707.141 654.399 706.943C654.591 706.403 655.164 703.732 655.403 702.099C654.878 702.429 654.436 702.704 654.151 702.855C652.907 703.521 650.794 703.518 650.101 702.566C649.857 702.232 649.585 701.502 650.504 700.373C651.687 698.92 653.413 699.686 654.802 700.3C655.222 700.486 655.618 700.662 655.959 700.759L656.035 700.79L656.048 700.798C657.972 699.589 659.59 698.634 660.367 698.556C660.999 698.489 661.7 698.816 662.089 699.364C662.437 699.854 662.513 700.449 662.301 701.043C661.644 702.872 658.811 702.662 658.251 702.602C657.622 702.534 657.108 702.296 656.63 702.024L658.259 705.966C658.341 706.16 658.256 706.387 658.076 706.473C657.89 706.559 657.678 706.47 657.6 706.277L656.064 702.56C655.79 704.295 655.252 706.708 655.073 707.214C655.019 707.369 654.882 707.463 654.736 707.463Z" fill="white"/>
<path d="M738.399 671.417C738.886 671.707 739.364 671.959 739.947 672.022C740.989 672.135 742.864 672.035 743.251 670.952C743.405 670.523 743.276 670.206 743.139 670.014C742.898 669.677 742.455 669.474 742.059 669.507C741.441 669.568 739.813 670.537 738.399 671.417ZM733.858 670.497C733.397 670.497 733.002 670.658 732.673 671.062C732.37 671.436 732.055 671.951 732.294 672.278C732.716 672.859 734.429 672.9 735.454 672.353C735.75 672.194 736.257 671.875 736.856 671.498C736.628 671.408 736.392 671.303 736.15 671.195C735.257 670.8 734.493 670.497 733.858 670.497ZM736.362 677.648L736.233 677.624C736.046 677.548 735.952 677.325 736.024 677.127C736.215 676.586 736.789 673.917 737.027 672.283C736.501 672.614 736.06 672.889 735.775 673.041C734.531 673.706 732.416 673.702 731.725 672.75C731.481 672.416 731.209 671.687 732.129 670.556C733.311 669.105 735.038 669.871 736.425 670.485C736.846 670.671 737.242 670.846 737.583 670.944L737.659 670.975L737.672 670.983C739.595 669.773 741.214 668.819 741.992 668.741C742.623 668.674 743.323 669 743.713 669.548C744.06 670.039 744.136 670.634 743.925 671.228C743.268 673.056 740.435 672.846 739.874 672.787C739.247 672.719 738.731 672.481 738.254 672.209L739.883 676.15C739.965 676.346 739.88 676.572 739.7 676.657C739.514 676.744 739.304 676.655 739.224 676.462L737.688 672.745C737.413 674.48 736.876 676.892 736.697 677.399C736.643 677.553 736.506 677.648 736.362 677.648Z" fill="white"/>
<path d="M744.042 679.877C743.912 679.877 743.789 679.8 743.725 679.678L742.087 676.478L739.899 678.327C739.78 678.426 739.614 678.437 739.486 678.352C739.357 678.268 739.291 678.107 739.322 677.948L739.963 674.585H735.756C735.608 674.585 735.475 674.488 735.421 674.341C735.366 674.194 735.401 674.027 735.509 673.919L737.52 671.918C737.667 671.775 737.892 671.781 738.029 671.936C738.166 672.092 738.157 672.334 738.013 672.48L736.671 673.815H740.403C740.512 673.815 740.615 673.867 740.682 673.956C740.752 674.046 740.778 674.163 740.757 674.277L740.225 677.07L741.975 675.592C742.059 675.522 742.165 675.493 742.271 675.517C742.375 675.539 742.464 675.61 742.515 675.709L744.014 678.637L744.632 677.206C744.716 677.011 744.926 676.927 745.112 677.017C745.293 677.106 747.162 677.334 747.078 677.527L744.37 679.653C744.314 679.786 744.19 679.872 744.055 679.877H744.042Z" fill="white"/>
<path d="M662.85 710.107C662.708 710.107 662.579 710.018 662.521 709.878L661.271 706.872L658.625 708.777C658.511 708.861 658.363 708.866 658.242 708.79C658.124 708.716 658.053 708.575 658.065 708.428L658.29 705.422H653.613C653.48 705.422 653.359 705.345 653.296 705.22C653.232 705.097 653.237 704.947 653.31 704.828L655.1 701.889C655.21 701.711 655.432 701.662 655.598 701.776C655.767 701.892 655.812 702.131 655.706 702.308L654.276 704.653H658.678C658.779 704.653 658.875 704.698 658.943 704.777C659.011 704.856 659.047 704.961 659.039 705.069L658.843 707.693L661.223 705.978C661.313 705.915 661.425 705.898 661.525 705.927C661.627 705.958 661.71 706.037 661.756 706.14L662.802 708.66L663.329 706.974C663.393 706.774 663.599 706.663 663.785 706.731C663.974 706.798 664.076 707.017 664.013 707.218L663.192 709.844C663.146 709.994 663.016 710.098 662.868 710.107H662.85Z" fill="white"/>
<path d="M671.982 651.939L670.49 654.647C670.49 654.647 663.713 653.284 661.087 654.966C658.848 656.399 657.253 660.363 656.659 661.974C652.157 674.192 651.106 699 651.106 699L645.145 698.933C645.145 698.933 644.221 677.372 649.67 661.328C651.019 657.354 654.916 649.302 654.916 649.302L671.982 651.939Z" fill="#E7B0B0"/>
<path d="M671.363 653.225C666.25 652.022 660.382 650.718 660.042 650.718C659.445 650.718 652.878 661.55 652.878 661.55L655.415 665.559C656.759 661.337 661.634 660.913 666.41 661.763C666.663 661.807 666.919 661.847 667.176 661.887C667.979 659.968 669.841 656.224 671.363 653.225Z" fill="#E7B0B0"/>
<path d="M713.624 618.807C711.46 616.179 703.584 616.96 703.624 616.869C706.285 610.71 706.658 607.763 709.146 598.418L711.385 607.923L713.624 618.807Z" fill="#2F2E41"/>
<path d="M709.146 598.418C709.146 598.418 716.011 596.666 716.758 589.657C716.758 589.657 725.008 606.586 742.728 615.887C754.867 622.258 707.355 616.736 706.907 616.099C706.46 615.462 709.146 598.418 709.146 598.418Z" fill="#2F2E41"/>
<path d="M716.758 589.658L750.091 619.709L723.524 626.718L716.758 589.658Z" fill="#2F2E41"/>
<path d="M685.195 660.32L651.539 651.368L654.771 643.786L688.426 653.375L685.195 660.32Z" fill="#2F2E41"/>
<path d="M754.568 618.011L729.444 634.258L724.071 629.798L748.2 610.577L754.568 618.011Z" fill="#2F2E41"/>
<path d="M739.842 473.695C739.942 475.075 741.533 476.668 745.215 476.668C748.897 476.668 747.603 472.208 747.603 472.208L739.842 473.695Z" fill="#E7B0B0"/>
<path d="M809.593 477.706L730.787 471.981V467.763L809.593 462.038V477.706Z" fill="#525563"/>
<path d="M752.152 466.211L752.579 466.174V466.179L752.152 466.211Z" fill="#BDBCC0"/>
<path d="M752.579 473.563L730.787 471.98V470.403H751.011L751.834 466.238L752.152 466.211L752.579 466.18V473.563Z" fill="#3D3D4A"/>
<path d="M787.205 475.557C787.205 476.608 786.399 477.445 785.415 477.418L754.369 476.552C753.384 476.524 752.579 475.642 752.579 474.591V465.153C752.579 464.101 753.384 463.218 754.369 463.191L785.415 462.326C786.399 462.298 787.205 463.135 787.205 464.187V475.557Z" fill="#525563"/>
<path d="M780.613 477.375L756.807 476.634V476.62L780.613 477.284V477.375ZM752.628 475.039C752.596 474.895 752.579 474.744 752.579 474.591C752.579 474.744 752.596 474.895 752.628 475.039Z" fill="#BDBCC0"/>
<path d="M780.613 477.284L756.807 476.62V470.403H776.755C777.74 470.403 778.643 469.549 778.762 468.505L779.23 464.41C779.323 463.593 779.896 462.877 780.613 462.589V477.284ZM752.628 475.039C752.596 474.895 752.579 474.744 752.579 474.591V472.314C752.579 472.161 752.595 472.011 752.628 471.867V475.039Z" fill="#3D3D4A"/>
<path d="M818.846 476.527C818.846 477.929 817.771 479.076 816.458 479.076H783.026C781.712 479.076 780.638 477.929 780.638 476.527V463.217C780.638 461.815 781.712 460.667 783.026 460.667H816.458C817.771 460.667 818.846 461.815 818.846 463.217V476.527Z" fill="#525563"/>
<path d="M814.966 479.076H785.986V470.403H810.488C811.473 470.403 812.434 469.559 812.623 468.527L813.726 462.509C813.855 461.8 814.35 461.18 814.966 460.861V479.076Z" fill="#3D3D4A"/>
<path d="M814.966 480.987H820.339V458.756H814.966V480.987Z" fill="#CB7145"/>
<path d="M752.628 477.597H756.807V462.181H752.628V477.597Z" fill="#CB7145"/>
<path d="M731.335 472.152L728.35 472.789C728.35 472.789 727.753 471.783 727.753 469.766C727.753 467.748 728.35 466.989 728.35 466.989L731.335 467.626V472.152Z" fill="#525563"/>
<path d="M780.613 479.533H785.986V460.246H780.613V479.533Z" fill="#CB7145"/>
<path d="M785.986 479.533H780.613V469.913H785.986V470.403V479.076V479.533Z" fill="#BB5634"/>
<path d="M752.703 477.518H756.757V469.913H752.703V477.518Z" fill="#BB5634"/>
<path d="M783.225 488.137C784.92 485.698 787.504 483.079 791.185 482.19C792.473 481.879 794.218 482.296 795.662 482.296C797.3 482.296 798.506 481.154 799.245 480.704C801.334 479.429 801.317 479.455 801.036 479.004C800.638 478.367 786.608 478.898 784.22 478.898C781.832 478.898 779.825 480.804 779.433 482.74C779.086 484.459 783.225 488.137 783.225 488.137Z" fill="#E7B0B0"/>
<path d="M782.926 480.279C783.822 479.11 785.315 476.031 787.901 475.819C790.488 475.606 794.27 475.819 795.563 475.819C796.856 475.819 797.155 478.367 794.866 478.367C792.578 478.367 786.608 481.022 786.608 481.022L782.926 480.279Z" fill="#E7B0B0"/>
<path d="M742.128 469.235C741.101 469.235 740.205 468.426 740.06 467.309L739.663 464.23C739.505 463.01 740.304 461.883 741.447 461.716C742.589 461.549 743.645 462.4 743.803 463.621L744.201 466.699C744.358 467.92 743.559 469.046 742.416 469.213C742.319 469.228 742.223 469.235 742.128 469.235Z" fill="#E7B0B0"/>
<path d="M741.734 475.818C741.189 475.818 740.652 475.554 740.3 475.054C739.707 474.209 739.867 473.011 740.658 472.378L742.648 470.785C743.439 470.152 744.562 470.322 745.156 471.167C745.749 472.012 745.589 473.21 744.797 473.843L742.807 475.436C742.485 475.694 742.108 475.818 741.734 475.818Z" fill="#E7B0B0"/>
<path d="M745.213 469.553C744.284 469.553 743.499 468.788 743.429 467.783L743.23 464.916C743.157 463.862 743.898 462.946 744.884 462.868C745.869 462.79 746.729 463.58 746.803 464.633L747.002 467.5C747.075 468.553 746.334 469.47 745.347 469.548L745.213 469.553Z" fill="#E7B0B0"/>
<path d="M747.506 469.341C747.418 469.341 747.33 469.334 747.241 469.32C746.262 469.165 745.587 468.193 745.732 467.149L746.131 464.282C746.275 463.237 747.185 462.517 748.165 462.671C749.143 462.826 749.819 463.798 749.674 464.842L749.275 467.71C749.143 468.659 748.378 469.341 747.506 469.341Z" fill="#E7B0B0"/>
<path d="M749.293 469.341C748.952 469.341 748.607 469.237 748.301 469.02C747.479 468.434 747.256 467.247 747.805 466.369L748.8 464.776C749.349 463.897 750.461 463.66 751.283 464.246C752.107 464.831 752.329 466.018 751.78 466.897L750.785 468.489C750.44 469.042 749.872 469.341 749.293 469.341Z" fill="#E7B0B0"/>
<path d="M814.966 480.987H820.339V469.554H814.966V480.987Z" fill="#BB5634"/>
<path d="M690.015 489.959C685.331 495.591 683.434 507.322 682.461 519.274C682.745 519.182 683.033 519.07 683.325 518.933C688.102 516.703 692.878 502.686 692.878 502.686C691.833 492.969 698.366 486.094 705.77 486.904C701.819 486.603 694.271 484.845 690.015 489.959Z" fill="#2F2E41"/>
<path d="M731.795 486.159C731.771 486.153 731.748 486.146 731.725 486.139C731.767 485.93 731.81 485.722 731.855 485.516C731.887 485.526 731.92 485.535 731.954 485.545L731.795 486.159Z" fill="url(#paint2_radial_23_2)"/>
<path d="M731.725 486.139C729.936 485.62 729.078 484.872 727.741 483.477C727.731 483.467 727.722 483.456 727.713 483.445C727.912 483.354 728.101 483.248 728.26 483.128C729.464 484.377 730.224 485.038 731.855 485.516C731.81 485.722 731.767 485.93 731.725 486.139Z" fill="#9F583C"/>
<path d="M726.31 483.889C726.31 483.889 727.952 483.332 728.25 482.058L728.661 482.614C728.603 482.809 728.455 482.98 728.26 483.128C728.228 483.095 728.195 483.061 728.162 483.027C728.1 482.962 728.031 482.934 727.963 482.934C727.743 482.934 727.547 483.225 727.713 483.445C727.057 483.747 726.31 483.889 726.31 483.889Z" fill="#9F583C"/>
<path d="M727.713 483.445C727.547 483.226 727.743 482.934 727.963 482.934C728.031 482.934 728.1 482.962 728.162 483.027C728.195 483.061 728.228 483.095 728.26 483.128C728.101 483.248 727.912 483.354 727.713 483.445Z" fill="#793F32"/>
<path d="M849.45 665.893L848.984 665.904L851.083 760.022L851.549 760.012L849.45 665.893Z" fill="#3F3D56"/>
<path d="M850.093 707.472C850.069 707.391 847.757 699.335 852.611 691.651L853.007 691.894C848.262 699.406 850.517 707.264 850.54 707.342L850.093 707.472Z" fill="#3F3D56"/>
<path d="M852.729 692.088C852.729 692.088 851.23 681.982 865.034 679.208C867.91 678.63 870.614 678.236 873.092 677.972C876.018 677.662 877.159 681.613 874.516 682.89C870.689 684.738 867.088 687.067 865.212 689.825C860.036 697.431 852.729 692.088 852.729 692.088Z" fill="#34D399"/>
<path d="M850.907 736.697L850.46 736.567C850.483 736.489 852.734 728.624 847.993 721.119L848.389 720.876C853.243 728.56 850.931 736.616 850.907 736.697Z" fill="#3F3D56"/>
<path d="M848.271 721.313C848.271 721.313 849.77 711.207 835.966 708.433C833.09 707.856 830.386 707.461 827.908 707.197C824.982 706.887 823.841 710.838 826.484 712.115C830.311 713.963 833.912 716.292 835.788 719.05C840.964 726.656 848.271 721.313 848.271 721.313Z" fill="#34D399"/>
<path d="M867.484 652.819C870.263 652.096 872.861 650.836 872.775 649.59C872.673 648.11 868.815 647.118 865.487 646.967C867.997 645.029 870.304 642.351 869.598 641.139C868.95 640.025 865.933 640.457 863.15 641.438C864.797 639.114 865.955 636.496 865.073 635.6C863.975 634.484 860.076 636.41 857.415 638.54C857.933 635.222 857.672 631.035 856.164 630.656C854.902 630.339 853.114 632.775 851.888 635.428C851.347 632.644 850.25 630 848.984 630C847.181 630 845.719 635.365 845.719 638.86C845.719 639.057 845.725 639.243 845.734 639.421C845.553 639.214 845.345 638.997 845.109 638.771C842.568 636.336 837.649 633.633 836.393 634.91C835.511 635.806 836.669 638.424 838.316 640.747C835.533 639.766 832.517 639.335 831.868 640.449C830.997 641.945 834.721 645.681 837.748 647.493C837.566 647.471 837.375 647.453 837.172 647.439C833.638 647.201 828.115 648.275 827.992 650.05C827.906 651.296 830.504 652.556 833.283 653.279C830.516 654.305 827.932 655.899 828.166 657.163C828.451 658.696 832.794 659.233 836.208 658.919C833.657 661.334 830.891 665.66 832.046 666.928C832.891 667.857 835.617 666.896 838.079 665.432C836.898 668.105 836.256 671.046 837.338 671.76C838.768 672.704 842.689 669.419 844.757 666.592C844.546 670.05 845.385 674.801 847.049 674.988C848.306 675.13 849.7 672.626 850.558 669.92C851.471 672.694 852.967 675.314 854.257 675.14C855.934 674.915 856.666 670.045 856.353 666.585C858.485 669.295 862.075 672.193 863.429 671.3C864.511 670.585 863.869 667.645 862.688 664.972C865.149 666.435 867.875 667.397 868.721 666.468C869.876 665.2 867.11 660.874 864.559 658.459C867.973 658.773 872.316 658.236 872.601 656.703C872.835 655.439 870.251 653.845 867.484 652.819L867.484 652.819ZM852.523 662.6C851.809 662.696 851.156 662.834 850.659 663.184C850.131 662.667 849.361 662.51 848.504 662.413C847.545 662.305 846.673 662.295 846.008 662.841C845.765 662.174 845.166 661.7 844.47 661.24C843.87 660.845 843.289 660.52 842.682 660.457C842.634 659.725 842.164 659.103 841.587 658.47C841.22 658.066 840.852 657.705 840.444 657.464C841.033 656.757 840.965 655.863 840.783 654.882C840.653 654.182 840.484 653.545 840.106 653.071C840.606 652.528 840.73 651.761 840.789 650.912C840.853 649.985 840.826 649.144 840.284 648.519C841.685 648.694 842.361 647.833 842.99 646.753C843.349 646.137 843.638 645.542 843.66 644.94C844.397 644.844 844.994 644.338 845.595 643.727C846.108 643.206 846.544 642.689 846.708 642.095C847.296 642.583 848.099 642.657 848.984 642.657C849.847 642.657 850.63 642.586 851.214 642.132C851.667 642.536 852.3 642.746 852.999 642.921C853.666 643.089 854.295 643.201 854.867 643.088C855.076 643.559 855.448 643.987 855.872 644.418C856.473 645.028 857.07 645.534 857.807 645.631C857.829 646.233 858.117 646.827 858.476 647.444C858.899 648.17 859.343 648.797 860.014 649.077C859.936 649.499 859.944 649.963 859.978 650.452C860.037 651.301 860.161 652.068 860.66 652.611C860.283 653.085 860.114 653.722 859.984 654.422C859.802 655.403 859.734 656.297 860.323 657.004C859.915 657.245 859.547 657.606 859.18 658.01C858.603 658.643 858.132 659.265 858.085 659.997C857.477 660.06 856.896 660.384 856.297 660.78C855.479 661.32 854.797 661.88 854.666 662.749C854.052 662.455 853.317 662.493 852.523 662.6V662.6Z" fill="#34D399"/>
<path d="M850.617 664.288C857.056 664.288 862.277 659.136 862.277 652.782C862.277 646.427 857.056 641.276 850.617 641.276C844.177 641.276 838.956 646.427 838.956 652.782C838.956 659.136 844.177 664.288 850.617 664.288Z" fill="#3F3D56"/>
<g clip-path="url(#clip1_23_2)">
<path d="M206.841 736.578C213.012 737.575 217.527 741.738 216.924 745.876C216.321 750.014 210.83 752.559 204.657 751.561C202.186 751.198 199.833 750.217 197.795 748.7L171.697 744.129L173.439 733.26L199.478 737.142C201.854 736.337 204.379 736.144 206.841 736.578H206.841Z" fill="#FFB6B6"/>
<path d="M94.3769 702.698L104.497 725.323L155.37 743.366L197.584 745.739L198.642 735.056L152.891 724.978L105.945 701.604L94.3769 702.698Z" fill="#E6E6E6"/>
<path d="M209.799 655.366L211.187 655.398L208.535 782.375L207.147 782.343L209.799 655.366Z" fill="#3F3D56"/>
<path d="M209.769 711.587C209.895 711.137 212.771 700.428 206.543 689.902L205.366 690.675C211.255 700.628 208.467 711.072 208.438 711.177L209.769 711.587Z" fill="#3F3D56"/>
<path d="M206.056 690.714C206.056 690.714 207.95 677.08 190.508 673.338C186.874 672.558 183.458 672.026 180.327 671.671C176.63 671.252 175.189 676.583 178.528 678.305C183.364 680.798 187.913 683.94 190.284 687.661C196.823 697.923 206.056 690.714 206.056 690.714Z" fill="#34D399"/>
<path d="M207.975 751.016L209.307 750.605C209.278 750.5 206.49 740.057 212.379 730.104L211.202 729.33C204.974 739.856 207.85 750.565 207.975 751.016Z" fill="#3F3D56"/>
<path d="M211.688 730.143C211.688 730.143 209.795 716.508 227.237 712.766C230.87 711.987 234.287 711.454 237.418 711.099C241.114 710.68 242.556 716.011 239.217 717.733C234.381 720.227 229.832 723.369 227.461 727.089C220.922 737.351 211.688 730.143 211.688 730.143H211.688Z" fill="#34D399"/>
<path d="M187.412 637.735C183.902 636.76 180.619 635.061 180.728 633.379C180.857 631.382 185.731 630.044 189.936 629.841C186.764 627.226 183.85 623.612 184.741 621.978C185.561 620.475 189.372 621.057 192.889 622.381C190.808 619.246 189.344 615.714 190.459 614.505C191.847 612.999 196.773 615.598 200.135 618.471C199.48 613.995 199.811 608.346 201.716 607.835C203.31 607.407 205.569 610.694 207.118 614.274C207.803 610.517 209.188 606.95 210.788 606.95C213.066 606.95 214.913 614.187 214.913 618.903C214.913 619.169 214.906 619.42 214.895 619.66C215.123 619.38 215.385 619.089 215.684 618.783C218.895 615.498 225.109 611.852 226.697 613.574C227.811 614.782 226.348 618.315 224.267 621.449C227.783 620.126 231.595 619.544 232.414 621.047C233.515 623.066 228.809 628.106 224.984 630.55C225.214 630.521 225.456 630.496 225.713 630.478C230.178 630.157 237.157 631.605 237.312 634C237.421 635.682 234.138 637.381 230.627 638.356C234.122 639.741 237.388 641.892 237.091 643.596C236.732 645.665 231.245 646.389 226.93 645.965C230.153 649.223 233.648 655.06 232.19 656.771C231.121 658.024 227.677 656.727 224.567 654.753C226.059 658.359 226.87 662.326 225.503 663.289C223.696 664.563 218.741 660.131 216.129 656.317C216.395 660.983 215.335 667.392 213.233 667.645C211.644 667.836 209.883 664.458 208.799 660.807C207.645 664.549 205.755 668.084 204.125 667.85C202.006 667.545 201.082 660.976 201.477 656.307C198.783 659.964 194.247 663.874 192.537 662.668C191.169 661.705 191.98 657.738 193.473 654.132C190.363 656.106 186.918 657.403 185.849 656.15C184.391 654.439 187.886 648.602 191.109 645.344C186.795 645.768 181.308 645.044 180.948 642.975C180.651 641.271 183.917 639.12 187.412 637.735ZM206.316 650.931C207.219 651.061 208.044 651.247 208.671 651.72C209.338 651.022 210.312 650.81 211.394 650.68C212.607 650.534 213.708 650.52 214.548 651.257C214.856 650.357 215.611 649.717 216.492 649.097C217.249 648.563 217.983 648.125 218.751 648.041C218.811 647.053 219.406 646.214 220.134 645.359C220.598 644.815 221.063 644.328 221.578 644.002C220.834 643.048 220.92 641.842 221.15 640.519C221.314 639.575 221.528 638.715 222.005 638.076C221.374 637.343 221.217 636.308 221.143 635.163C221.062 633.912 221.096 632.778 221.781 631.934C220.01 632.171 219.156 631.009 218.361 629.552C217.908 628.72 217.543 627.919 217.515 627.106C216.584 626.976 215.83 626.293 215.07 625.47C214.422 624.766 213.87 624.069 213.663 623.268C212.92 623.926 211.906 624.025 210.788 624.025C209.698 624.025 208.708 623.931 207.97 623.317C207.398 623.863 206.598 624.145 205.715 624.382C204.873 624.608 204.077 624.759 203.354 624.607C203.09 625.243 202.621 625.819 202.085 626.401C201.326 627.225 200.571 627.907 199.64 628.037C199.612 628.85 199.248 629.652 198.794 630.484C198.26 631.463 197.699 632.31 196.851 632.688C196.95 633.257 196.939 633.883 196.896 634.542C196.822 635.687 196.665 636.722 196.034 637.455C196.512 638.094 196.725 638.954 196.889 639.898C197.119 641.222 197.205 642.427 196.461 643.381C196.977 643.707 197.441 644.194 197.906 644.739C198.634 645.593 199.229 646.432 199.289 647.42C200.056 647.504 200.79 647.942 201.547 648.476C202.581 649.204 203.443 649.96 203.608 651.133C204.384 650.736 205.313 650.787 206.316 650.931Z" fill="#34D399"/>
<path d="M208.725 653.208C200.588 653.208 193.992 646.258 193.992 637.685C193.992 629.112 200.588 622.162 208.725 622.162C216.862 622.162 223.458 629.112 223.458 637.685C223.458 646.258 216.862 653.208 208.725 653.208Z" fill="#3F3D56"/>
<path d="M386.413 825.917C386.413 826.399 386.045 826.787 385.587 826.787H23.2819C22.8241 826.787 22.4565 826.399 22.4565 825.917C22.4565 825.435 22.8241 825.047 23.2819 825.047H385.587C386.045 825.047 386.413 825.435 386.413 825.917Z" fill="#3F3D56"/>
<path d="M188.206 788.605L197.292 812.818L209.049 804.371L202.102 779.033L188.206 788.605Z" fill="#FFB6B6"/>
<path d="M226.151 779.596L250.201 803.808L240.581 814.507L215.997 794.236L226.151 779.596Z" fill="#FFB6B6"/>
<path d="M89.8697 700.764L90.1369 698.793L96.283 686.124L116.592 691.754L112.85 709.21L89.8697 700.764Z" fill="#FFB6B6"/>
<path d="M98.4207 785.227L97.7961 793.684C97.7961 793.684 95.214 829.147 116.057 831.963C136.9 834.778 145.986 837.593 158.278 815.633L177.517 779.596L188.755 793.684L203.705 781.285C203.705 781.285 193.016 737.364 184.465 735.675C183.396 735.464 182.327 735.358 181.275 735.335C174.196 735.18 167.523 738.828 163.287 744.806L139.038 779.033L130.22 774.809L98.4206 785.227H98.4207Z" fill="#2F2E41"/>
<path d="M213.859 811.692L209.049 802.119L195.154 812.255C195.154 812.255 191.947 824.643 196.757 826.332C201.567 828.021 214.928 825.769 214.928 825.769C214.928 825.769 239.512 831.4 240.046 826.332C240.581 821.264 228.823 820.138 228.823 820.138L213.859 811.692Z" fill="#2F2E41"/>
<path d="M161.484 804.935L198.628 780.276L217.6 798.177L230.427 782.411C230.427 782.411 206.911 745.811 199.964 744.121C193.016 742.432 181.793 741.306 181.793 741.306L147.589 774.528L161.484 804.935Z" fill="#2F2E41"/>
<path d="M250.735 801.556L238.443 815.633L240.064 817.094C240.064 817.094 243.253 831.728 250.735 826.777C258.217 821.827 258.752 820.701 258.752 820.701C258.752 820.701 280.129 825.769 282.267 816.759C284.405 807.75 278.526 809.439 278.526 809.439L273.188 812.818L250.735 801.556L250.735 801.556Z" fill="#2F2E41"/>
<path d="M110.178 697.948C100.733 697.948 93.0763 689.881 93.0763 679.93C93.0763 669.978 100.733 661.911 110.178 661.911C119.623 661.911 127.28 669.978 127.28 679.93C127.28 689.881 119.623 697.948 110.178 697.948Z" fill="#FFB6B6"/>
<path d="M114.187 705.55L89.6025 697.667C89.6025 697.667 79.9826 721.316 81.5859 732.015C83.1892 742.714 97.7961 793.684 97.7961 793.684L130.22 774.809C130.22 774.809 130.754 763.548 132.357 758.48C133.961 753.412 139.038 737.927 127.815 724.976C116.592 712.025 114.187 705.55 114.187 705.55V705.55Z" fill="#E6E6E6"/>
<path d="M30.3417 754.77L31.7288 754.803L30.2367 826.227L28.8497 826.195L30.3417 754.77Z" fill="#3F3D56"/>
<path d="M30.9196 786.492C30.9917 786.233 32.6453 780.076 29.0709 774.035L27.8935 774.808C31.1296 780.277 29.6037 786.025 29.5881 786.082L30.9196 786.492Z" fill="#3F3D56"/>
<path d="M28.5396 774.661C28.5396 774.661 29.6046 766.992 19.7936 764.887C17.7496 764.448 15.8281 764.149 14.0667 763.949C11.9875 763.713 11.1765 766.712 13.0547 767.681C15.7749 769.083 18.3337 770.851 19.6674 772.944C23.3457 778.716 28.5396 774.661 28.5396 774.661Z" fill="#34D399"/>
<path d="M29.3276 808.67L30.6591 808.26C30.6435 808.203 29.1176 802.456 32.3537 796.987L31.1763 796.213C27.6019 802.255 29.2555 808.411 29.3276 808.67Z" fill="#3F3D56"/>
<path d="M31.7076 796.84C31.7076 796.84 30.6426 789.17 40.4536 787.065C42.4976 786.627 44.4191 786.327 46.1805 786.127C48.2597 785.892 49.0707 788.891 47.1924 789.859C44.4723 791.262 41.9135 793.029 40.5798 795.122C36.9014 800.894 31.7076 796.84 31.7076 796.84V796.84Z" fill="#34D399"/>
<path d="M18.0524 744.86C16.0776 744.312 14.2309 743.356 14.2921 742.41C14.3649 741.287 17.1066 740.534 19.4718 740.42C17.6878 738.949 16.0486 736.916 16.5499 735.997C17.0108 735.152 19.1546 735.479 21.1327 736.223C19.9621 734.46 19.1392 732.473 19.7659 731.793C20.5467 730.946 23.3176 732.408 25.2086 734.024C24.8405 731.507 25.0266 728.329 26.0983 728.041C26.9949 727.801 28.2656 729.649 29.1368 731.663C29.5218 729.55 30.3013 727.544 31.201 727.544C32.4825 727.544 33.5214 731.615 33.5214 734.267C33.5214 734.417 33.5177 734.558 33.5112 734.693C33.6398 734.536 33.7872 734.372 33.9553 734.2C35.7612 732.352 39.2569 730.301 40.1497 731.269C40.7765 731.949 39.9535 733.936 38.783 735.7C40.761 734.955 42.9049 734.628 43.3658 735.473C43.985 736.609 41.3381 739.444 39.1865 740.819C39.3158 740.802 39.4517 740.788 39.5963 740.778C42.1078 740.598 46.0335 741.412 46.1208 742.76C46.182 743.705 44.3353 744.661 42.3605 745.21C44.3266 745.988 46.1635 747.198 45.9968 748.157C45.7945 749.321 42.708 749.728 40.2812 749.49C42.0942 751.322 44.0601 754.606 43.2397 755.568C42.6385 756.273 40.701 755.543 38.9516 754.433C39.7912 756.461 40.2472 758.693 39.4782 759.235C38.4619 759.951 35.6748 757.458 34.2053 755.313C34.355 757.937 33.759 761.542 32.5765 761.684C31.6827 761.792 30.6922 759.892 30.0821 757.838C29.4334 759.943 28.37 761.932 27.4533 761.8C26.2613 761.629 25.7416 757.933 25.9639 755.307C24.4481 757.364 21.8971 759.564 20.9347 758.885C20.1657 758.343 20.6217 756.112 21.4613 754.083C19.7119 755.194 17.7745 755.924 17.1732 755.219C16.3528 754.256 18.3187 750.973 20.1317 749.14C17.7049 749.379 14.6185 748.972 14.4161 747.808C14.2494 746.849 16.0863 745.639 18.0524 744.86ZM28.6858 752.283C29.1934 752.356 29.6576 752.461 30.0106 752.727C30.3856 752.334 30.9332 752.215 31.5422 752.142C32.2241 752.06 32.8438 752.052 33.3163 752.466C33.4892 751.96 33.9143 751.6 34.4096 751.251C34.8354 750.951 35.2484 750.705 35.6801 750.657C35.7138 750.102 36.0485 749.629 36.4581 749.149C36.7193 748.843 36.9806 748.569 37.2706 748.386C36.8522 747.849 36.9005 747.171 37.0299 746.426C37.1222 745.895 37.2422 745.412 37.5106 745.052C37.1558 744.64 37.0675 744.058 37.0258 743.413C36.9802 742.71 36.9992 742.072 37.3846 741.597C36.3886 741.731 35.9079 741.077 35.4611 740.257C35.2059 739.789 35.0008 739.339 34.9852 738.882C34.4614 738.808 34.037 738.424 33.61 737.961C33.2452 737.565 32.935 737.173 32.8184 736.722C32.4004 737.092 31.8301 737.148 31.2009 737.148C30.588 737.148 30.031 737.095 29.6162 736.75C29.2941 737.057 28.8442 737.216 28.3477 737.349C27.8737 737.476 27.4264 737.561 27.0196 737.476C26.8711 737.833 26.6071 738.158 26.3056 738.485C25.8786 738.948 25.4543 739.332 24.9305 739.405C24.9149 739.862 24.7097 740.313 24.4545 740.781C24.1541 741.332 23.8386 741.809 23.3613 742.021C23.4171 742.341 23.4111 742.694 23.3871 743.064C23.3454 743.708 23.2571 744.29 22.9023 744.703C23.1707 745.062 23.2907 745.546 23.383 746.077C23.5124 746.821 23.5607 747.5 23.1423 748.036C23.4323 748.22 23.6936 748.493 23.9548 748.8C24.3644 749.28 24.6991 749.752 24.7328 750.308C25.1645 750.355 25.5775 750.602 26.0033 750.902C26.5849 751.312 27.0694 751.737 27.1625 752.396C27.5989 752.173 28.1214 752.202 28.6858 752.283Z" fill="#34D399"/>
<path d="M30.0407 753.564C25.4637 753.564 21.7533 749.655 21.7533 744.832C21.7533 740.01 25.4637 736.101 30.0407 736.101C34.6177 736.101 38.3281 740.01 38.3281 744.832C38.3281 749.655 34.6177 753.564 30.0407 753.564Z" fill="#3F3D56"/>
<path d="M168.295 823.787C172.295 828.838 173.065 835.106 170.015 837.788C166.964 840.471 161.248 838.551 157.246 833.498C155.622 831.503 154.474 829.127 153.9 826.568L137.204 804.945L145.337 798.011L162.421 819.077C164.708 820.13 166.722 821.746 168.295 823.787Z" fill="#FFB6B6"/>
<path d="M95.3295 716.91L89.5186 741.161L117.959 789.126L146.992 819.869L156.402 811.644L127.122 773.259L104.927 723.801L95.3295 716.91Z" fill="#E6E6E6"/>
<path d="M125.944 676.833C121.558 676.822 121.309 676.852 120.6 676.833C115.16 676.681 113.737 674.427 110.98 674.58C106.059 674.855 112.554 700.852 115.255 712.87C117.905 724.657 108.951 735.219 108.308 735.957C99.2197 746.37 83.2562 748.274 80.517 743.84C78.2999 740.25 86.1575 734.793 84.2581 726.947C82.4014 719.278 73.8281 720.095 71.4316 712.87C68.9219 705.304 77.356 701.488 82.6548 683.027C85.6979 672.424 85.1596 670.449 87.9992 663.882C95.5893 646.329 132.793 653.802 128.616 670.076C127.808 673.223 129.959 676.843 125.944 676.833Z" fill="#2F2E41"/>
</g>
</g>
<path d="M943.018 115.467C934.504 115.467 670.074 115.467 659.356 115.467C648.638 115.467 639.768 108.767 676.685 100.901C725.518 90.4955 757.059 123.344 838.639 89.7799C901.424 63.9478 879.583 97.6009 879.583 97.6009C879.583 97.6009 901.122 76.3529 936.078 103.213C939.449 105.804 951.532 115.467 943.018 115.467" fill="#F0F0F0"/>
<path d="M152.725 57.1618C161.347 57.1618 590.038 57.1581 600.892 57.1581C611.746 57.1581 620.728 44.7196 583.343 37.2075C533.891 27.271 446.397 61.0278 376.427 32.6288C358.61 25.3957 337.301 5.81203e-07 291.191 5.81203e-07C215.872 0.00122944 212.534 40.0978 212.534 40.0978C212.534 40.0978 172.033 16.409 147.986 45.8513C145.425 48.9874 144.102 57.1618 152.725 57.1618" fill="#F0F0F0"/>
<defs>
<radialGradient id="paint0_radial_23_2" cx="0" cy="0" r="1" gradientUnits="userSpaceOnUse" gradientTransform="translate(827.603 463.395) rotate(139.196) scale(41.276 41.7557)">
<stop stop-color="#CEEFF3"/>
<stop offset="0.00161432" stop-color="#CEEFF3"/>
<stop offset="1" stop-color="#5EB5C8"/>
</radialGradient>
<radialGradient id="paint1_radial_23_2" cx="0" cy="0" r="1" gradientUnits="userSpaceOnUse" gradientTransform="translate(692.28 739.071) rotate(-90) scale(719.988 674.62)">
<stop stop-color="#ADDED3"/>
<stop offset="0.00161432" stop-color="#ADDED3"/>
<stop offset="1" stop-color="#4E96A8"/>
</radialGradient>
<radialGradient id="paint2_radial_23_2" cx="0" cy="0" r="1" gradientUnits="userSpaceOnUse" gradientTransform="translate(692.281 739.07) rotate(-90) scale(719.987 674.617)">
<stop stop-color="#86847D"/>
<stop offset="0.00161432" stop-color="#86847D"/>
<stop offset="1" stop-color="#566269"/>
</radialGradient>
<clipPath id="clip0_23_2">
<rect width="946" height="741" fill="white" transform="matrix(-1 0 0 1 946 121)"/>
</clipPath>
<clipPath id="clip1_23_2">
<rect width="415" height="425" fill="white" transform="matrix(-1 0 0 1 427 414)"/>
</clipPath>
</defs>
</svg>
