<svg width="146" height="47" viewBox="0 0 146 47" fill="none" xmlns="http://www.w3.org/2000/svg">
<g clip-path="url(#clip0_47_258)">
<g clip-path="url(#clip1_47_258)">
<path d="M73.4746 39C72.5334 39 71.4955 38.8017 70.3609 38.4052C69.221 38.0087 68.0497 37.5275 66.8471 36.9618C65.6445 36.3908 64.4549 35.841 63.2785 35.3123C62.6249 36.0525 61.9451 36.6287 61.2392 37.0411C60.5334 37.4482 59.7621 37.6518 58.9255 37.6518C58.0889 37.6518 57.3752 37.4535 56.7843 37.057C56.1987 36.6605 55.7542 36.1926 55.451 35.6533C55.1529 35.1087 55.0039 34.6249 55.0039 34.202C55.0039 33.7261 55.2183 33.3164 55.647 32.9727C56.081 32.6291 56.8209 32.4572 57.8667 32.4572C58.5464 32.4572 59.2994 32.5366 60.1255 32.6952C60.9464 32.8538 61.8013 33.052 62.6902 33.29C63.3177 32.1797 63.9007 30.8843 64.4393 29.404C64.9726 27.9236 65.5007 26.3507 66.0236 24.6853C66.5465 23.0198 67.0693 21.3544 67.5922 19.689C66.3896 19.2924 65.4406 18.7109 64.7451 17.9442C64.0549 17.1776 63.7098 16.3449 63.7098 15.4461C63.7098 14.9703 63.8092 14.4944 64.0079 14.0186C64.2014 13.5428 64.4811 13.1383 64.8471 12.8052C65.2131 12.4774 65.6445 12.3135 66.1412 12.3135C65.9582 12.5779 65.8275 12.9612 65.7491 13.4634C65.6706 13.9657 65.6314 14.4019 65.6314 14.772C65.6314 15.7765 65.8406 16.6145 66.2589 17.286C66.6772 17.9627 67.2131 18.4862 67.8667 18.8563C68.3896 17.2701 68.9334 15.7686 69.4981 14.3517C70.0576 12.94 70.6772 11.6791 71.357 10.5688C72.0367 9.45849 72.7818 8.58612 73.5923 7.95167C74.4027 7.31722 75.3047 7 76.2982 7C76.821 7 77.3779 7.11896 77.9688 7.35688C78.5544 7.5948 79.0564 8.00454 79.4747 8.58612C79.893 9.1677 80.1021 9.9872 80.1021 11.0446C80.1021 11.9434 79.9191 12.9136 79.5531 13.9551C79.1871 15.002 78.625 15.9933 77.8668 16.9291C77.1086 17.8702 76.1413 18.6368 74.9648 19.229C73.7883 19.8264 72.4027 20.1384 70.8079 20.1648C70.7818 20.1648 70.7243 20.1648 70.6354 20.1648C70.5413 20.1648 70.3504 20.1648 70.0628 20.1648C69.5399 21.7774 68.9857 23.4164 68.4001 25.0818C67.8092 26.7472 67.187 28.3254 66.5334 29.8164C65.8798 31.3126 65.1739 32.6423 64.4157 33.8055C65.6184 34.1755 66.834 34.5509 68.0628 34.9316C69.2916 35.3176 70.4811 35.6374 71.6315 35.8912C72.7818 36.1397 73.8406 36.2639 74.808 36.2639C75.357 36.2639 75.8537 36.2111 76.2982 36.1053C76.7426 35.9996 77.174 35.841 77.5923 35.6295C77.174 36.8455 76.6197 37.7126 75.9295 38.2307C75.2341 38.7436 74.4158 39 73.4746 39ZM58.7686 36.5019C59.3438 36.5019 59.8876 36.3432 60.4 36.026C60.9072 35.7088 61.37 35.2594 61.7883 34.6778C60.9778 34.3342 60.1883 34.0487 59.4196 33.8213C58.6458 33.5993 57.9451 33.4882 57.3176 33.4882C56.8209 33.4882 56.481 33.5543 56.298 33.6865C56.115 33.8187 56.0235 34.0037 56.0235 34.2416C56.0235 34.691 56.2771 35.1801 56.7843 35.7088C57.2967 36.2375 57.9582 36.5019 58.7686 36.5019ZM70.2981 19.4114C71.4746 19.4114 72.5413 19.073 73.4981 18.3963C74.4498 17.7248 75.2602 16.8789 75.9295 15.8585C76.5936 14.8434 77.1034 13.8071 77.459 12.7497C77.8093 11.6923 77.9844 10.767 77.9844 9.97398C77.9844 9.20735 77.8407 8.68393 77.5531 8.40372C77.2655 8.12879 76.9387 7.99133 76.5727 7.99133C75.7622 7.99133 75.004 8.52003 74.2981 9.57745C73.5923 10.6349 72.9177 12.028 72.2746 13.7569C71.6367 15.491 70.9779 17.3759 70.2981 19.4114ZM82.2982 36.8191C81.174 36.8191 80.3766 36.4701 79.906 35.7722C79.4354 35.0691 79.2001 34.2152 79.2001 33.2107C79.2001 32.3912 79.3309 31.5452 79.5923 30.6729C79.8537 29.8005 80.1988 28.981 80.6276 28.2144C81.0616 27.4477 81.5453 26.8265 82.0786 26.3507C82.6172 25.8748 83.161 25.6369 83.71 25.6369C83.8407 25.6369 83.9766 25.6554 84.1178 25.6924C84.2642 25.7347 84.4028 25.7823 84.5335 25.8352C84.2982 26.0467 84.0159 26.4353 83.6864 27.001C83.3623 27.572 83.0564 28.2197 82.7688 28.944C82.4812 29.6736 82.2381 30.3953 82.0394 31.109C81.8459 31.8228 81.7492 32.4308 81.7492 32.9331C81.7492 33.7261 81.8799 34.2998 82.1413 34.654C82.4028 35.0135 82.7426 35.1933 83.161 35.1933C83.71 35.1933 84.3636 34.8946 85.1217 34.2971C85.8799 33.705 86.625 32.9463 87.3571 32.0211C86.625 31.4131 86.0551 30.6121 85.6472 29.6181C85.2446 28.6294 85.0433 27.6196 85.0433 26.5886C85.0433 25.7162 85.1923 24.8967 85.4904 24.1301C85.7936 23.3635 86.2329 22.7475 86.808 22.2823C87.3832 21.8223 88.076 21.5923 88.8865 21.5923C89.9584 21.5923 90.6773 21.8831 91.0434 22.4647C91.4094 23.0463 91.5924 23.7732 91.5924 24.6456C91.5924 25.6766 91.344 26.8186 90.8473 28.0716C90.3505 29.3299 89.7231 30.5407 88.9649 31.7038C89.4355 31.9682 89.9322 32.1004 90.4551 32.1004C90.8734 32.1004 91.344 32.0158 91.8669 31.8466C92.3898 31.6721 92.9048 31.3734 93.412 30.9504C93.9244 30.5275 94.3375 29.9591 94.6512 29.2454L95.1218 29.6419C94.5989 30.8843 93.8591 31.762 92.9022 32.2748C91.9506 32.793 91.0434 33.052 90.1806 33.052C89.8407 33.052 89.5139 33.0177 89.2002 32.9489C88.8865 32.8855 88.5858 32.7877 88.2982 32.6555C87.4093 33.8451 86.4342 34.8364 85.3727 35.6295C84.3165 36.4226 83.2917 36.8191 82.2982 36.8191ZM88.0629 30.9901C88.7165 30.012 89.2577 28.9863 89.6865 27.913C90.1205 26.845 90.3375 25.8352 90.3375 24.8835C90.3375 24.1169 90.225 23.5538 90.0002 23.1943C89.7806 22.8401 89.5009 22.6629 89.161 22.6629C88.6381 22.6629 88.1022 23.0463 87.5531 23.8129C87.0041 24.5795 86.7296 25.5444 86.7296 26.7076C86.7296 27.4742 86.8394 28.2487 87.059 29.0312C87.2839 29.8084 87.6185 30.4614 88.0629 30.9901ZM98.0944 37.7708C96.8395 37.7708 95.7937 37.3478 94.9571 36.5019C94.1205 35.6559 93.7022 34.387 93.7022 32.6952C93.7022 31.3734 93.9584 30.086 94.4708 28.833C94.978 27.5746 95.6499 26.4432 96.4865 25.4387C97.3231 24.4341 98.2512 23.6331 99.2709 23.0357C100.29 22.4435 101.297 22.1475 102.29 22.1475C103.362 22.1475 104.094 22.4647 104.487 23.0991C104.879 23.7336 105.075 24.3945 105.075 25.0818C105.075 25.8484 104.9 26.5225 104.549 27.1041C104.194 27.6857 103.715 27.9765 103.114 27.9765C102.67 27.9765 102.29 27.7782 101.977 27.3817C102.369 27.1702 102.709 26.7393 102.996 26.089C103.284 25.4439 103.428 24.8306 103.428 24.2491C103.428 23.9318 103.37 23.686 103.255 23.5115C103.135 23.3423 102.905 23.2577 102.565 23.2577C101.859 23.2577 101.135 23.575 100.392 24.2094C99.6447 24.8439 98.9519 25.6634 98.314 26.6679C97.6709 27.6724 97.148 28.7299 96.7454 29.8401C96.3375 30.9504 96.1336 31.9946 96.1336 32.9727C96.1336 33.7922 96.3297 34.5456 96.7218 35.233C97.114 35.9203 97.8722 36.2639 98.9963 36.2639C100.042 36.2639 101.096 35.9732 102.157 35.3916C103.213 34.81 104.199 33.9773 105.114 32.8934C106.029 31.8096 106.761 30.5407 107.31 29.0867L107.82 29.4833C107.219 31.0694 106.395 32.4916 105.349 33.7499C104.304 35.003 103.153 35.9864 101.898 36.7001C100.643 37.4139 99.3754 37.7708 98.0944 37.7708ZM110.8 37.2949C109.206 37.2949 108.011 36.8534 107.216 35.9705C106.416 35.0823 106.016 33.9905 106.016 32.6952C106.016 31.5056 106.311 30.2499 106.902 28.9281C107.488 27.6064 108.272 26.3639 109.255 25.2007C110.233 24.0376 111.31 23.0912 112.487 22.3616C113.663 21.6373 114.827 21.2751 115.977 21.2751C116.578 21.2751 117.135 21.4337 117.647 21.7509C118.155 22.0682 118.408 22.7158 118.408 23.6939C118.408 24.6985 118.115 25.6422 117.53 26.5252C116.939 27.4134 116.168 28.2012 115.216 28.8885C114.259 29.5758 113.213 30.1362 112.079 30.5698C110.939 31.0086 109.807 31.2809 108.683 31.3866C108.63 31.651 108.591 31.9021 108.565 32.14C108.539 32.3779 108.526 32.6026 108.526 32.8141C108.526 33.2107 108.573 33.6072 108.667 34.0037C108.756 34.4002 108.918 34.7624 109.153 35.0902C109.389 35.4233 109.71 35.6824 110.118 35.8674C110.521 36.0525 111.023 36.145 111.624 36.145C112.748 36.145 113.859 35.8198 114.957 35.1695C116.055 34.5245 117.075 33.6733 118.016 32.6159C118.957 31.5584 119.755 30.3953 120.408 29.1264L120.879 29.4833C120.173 31.0694 119.279 32.444 118.196 33.6072C117.109 34.7703 115.932 35.6771 114.667 36.3274C113.396 36.9724 112.108 37.2949 110.8 37.2949ZM108.879 30.6332C109.585 30.3953 110.382 30.0437 111.271 29.5784C112.16 29.1185 113.017 28.5713 113.844 27.9368C114.664 27.3024 115.344 26.6018 115.883 25.8352C116.416 25.0686 116.683 24.2623 116.683 23.4164C116.683 23.1256 116.63 22.9009 116.526 22.7423C116.421 22.5836 116.199 22.5043 115.859 22.5043C115.232 22.5043 114.565 22.7475 113.859 23.234C113.153 23.7257 112.474 24.368 111.82 25.1611C111.166 25.9542 110.578 26.8265 110.055 27.7782C109.532 28.7299 109.14 29.6815 108.879 30.6332ZM126.408 36.5812C125.519 36.5812 124.821 36.3432 124.314 35.8674C123.802 35.3916 123.546 34.7703 123.546 34.0037C123.546 33.2107 123.729 32.3779 124.095 31.5056C124.461 30.6332 124.821 29.7661 125.177 28.9043C125.527 28.0478 125.702 27.2759 125.702 26.5886C125.702 25.7427 125.462 25.1135 124.981 24.7011C124.495 24.294 124.003 23.9186 123.506 23.575C122.905 25.1347 122.278 26.615 121.624 28.0161C120.97 29.4172 120.434 30.4746 120.016 31.1884L119.663 30.5143C120.029 29.8269 120.508 28.8224 121.098 27.5006C121.684 26.1789 122.264 24.672 122.84 22.9802C122.578 22.7158 122.447 22.3986 122.447 22.0285C122.447 21.2354 122.67 20.5878 123.114 20.0855C123.559 19.5832 123.885 19.3321 124.095 19.3321C124.382 19.3321 124.547 19.4563 124.589 19.7048C124.625 19.9586 124.644 20.1516 124.644 20.2838C124.644 20.4159 124.573 20.6724 124.432 21.053C124.285 21.439 124.212 21.6716 124.212 21.7509C124.212 22.121 124.416 22.4568 124.824 22.7581C125.227 23.0648 125.689 23.4084 126.212 23.7891C126.735 24.1751 127.2 24.6377 127.608 25.177C128.011 25.7215 128.212 26.4168 128.212 27.2627C128.212 28.0558 128.05 28.862 127.726 29.6815C127.397 30.501 127.07 31.2809 126.746 32.0211C126.416 32.7613 126.251 33.4089 126.251 33.9641C126.251 34.4399 126.369 34.7571 126.604 34.9157C126.84 35.0744 127.114 35.1537 127.428 35.1537C128.055 35.1537 128.704 34.9554 129.373 34.5589C130.037 34.1623 130.683 33.6601 131.31 33.052C131.938 32.444 132.5 31.8017 132.997 31.1249C133.493 30.4534 133.859 29.8269 134.095 29.2454L134.604 29.6419C134.108 30.7522 133.428 31.8413 132.565 32.9093C131.702 33.9826 130.743 34.8629 129.687 35.5502C128.625 36.2375 127.532 36.5812 126.408 36.5812ZM136.604 37.3742C135.48 37.3742 134.617 37.0438 134.016 36.3829C133.415 35.722 133.114 34.7439 133.114 33.4486C133.114 32.2854 133.329 30.85 133.757 29.1423C134.191 27.4398 134.735 25.6898 135.389 23.8922C135.127 23.8393 134.879 23.7917 134.644 23.7494C134.408 23.7124 134.186 23.6543 133.977 23.575V22.8612C134.186 22.8876 134.434 22.9141 134.722 22.9405C135.01 22.967 135.336 22.9934 135.702 23.0198C136.251 21.5923 136.84 20.2097 137.467 18.8721C138.095 17.5398 138.714 16.3502 139.326 15.3033C139.943 14.2618 140.531 13.4291 141.091 12.8052C141.655 12.1866 142.134 11.8773 142.526 11.8773C142.735 11.8773 142.923 11.9487 143.091 12.0914C143.263 12.2395 143.35 12.4589 143.35 12.7497C143.35 13.1991 143.075 13.9314 142.526 14.9465C141.977 15.9669 141.297 17.1776 140.487 18.5787C139.676 19.9798 138.892 21.4998 138.134 23.1388C138.369 23.1388 138.61 23.1388 138.855 23.1388C139.106 23.1388 139.35 23.1388 139.585 23.1388C140.448 23.1388 141.355 23.1256 142.306 23.0991C143.263 23.0727 144.225 23.0066 145.193 22.9009V23.6146C143.755 23.7732 142.466 23.8922 141.326 23.9715C140.191 24.0508 139.18 24.0905 138.291 24.0905C138.186 24.0905 138.087 24.0905 137.993 24.0905C137.904 24.0905 137.807 24.0905 137.702 24.0905C137.101 25.4915 136.591 26.9323 136.173 28.4126C135.755 29.893 135.546 31.3337 135.546 32.7348C135.546 33.8715 135.716 34.6831 136.055 35.1695C136.395 35.6612 136.957 35.9071 137.742 35.9071C139.101 35.9071 140.435 35.2991 141.742 34.083C143.049 32.867 144.199 31.2148 145.193 29.1264L145.703 29.5229C145.075 31.0033 144.283 32.3383 143.326 33.5279C142.374 34.7175 141.323 35.6559 140.173 36.3432C139.023 37.0306 137.833 37.3742 136.604 37.3742Z" fill="#009F65"/>
</g>
<g clip-path="url(#clip2_47_258)">
<path d="M0 23.4999C0 10.5212 10.5214 0 23.4999 0C36.4787 0 46.9999 10.5214 47.0001 23.4999C47.0001 36.4787 36.4787 46.9999 23.4999 47.0001C10.5212 47.0001 0 36.4787 0 23.4999ZM23.4999 45.1647C35.4651 45.1647 45.1647 35.4651 45.1647 23.4999C45.1647 11.5348 35.4651 1.83515 23.4999 1.83536C11.5348 1.83536 1.83515 11.535 1.83536 23.4999C1.83536 35.4651 11.535 45.1647 23.4999 45.1647V45.1647Z" fill="#009F65"/>
<g clip-path="url(#clip3_47_258)">
<g clip-path="url(#clip4_47_258)">
<path d="M32.3355 24.5209C32.3355 24.5209 32.3822 24.5209 32.3355 24.5209C34.3448 24.4251 35.8401 22.7489 35.8401 20.7375C35.8401 19.7318 34.999 18.9177 34.0177 18.9177H32.9897C32.3822 18.9177 31.8682 19.4445 31.8682 20.067V24.0899C31.8682 24.2335 31.915 24.3293 32.0084 24.4251C32.1019 24.473 32.2421 24.5209 32.3355 24.5209Z" fill="#009F65"/>
<path d="M9.81241 22.0305C9.76568 22.0305 9.76568 22.0305 9.71896 22.0305C9.01803 22.1263 8.50402 22.8447 8.45729 23.7067C8.41056 24.6166 8.92457 25.335 9.67223 25.5266C9.71896 25.5266 9.76568 25.5266 9.81241 25.5266C10.1862 25.4787 10.7003 25.5266 11.2143 25.5744L12.0554 21.9348C11.1675 22.0305 10.3732 22.0784 9.81241 22.0305Z" fill="#009F65"/>
<path d="M25.4197 27.1549L25.6066 26.9633L17.2422 21.1685C16.3076 21.3122 15.3731 21.5038 14.532 21.5995L13.5507 25.8618C14.1581 25.9576 14.8123 26.0534 15.5133 26.1491C18.317 26.6281 21.5879 27.1549 24.6253 27.1549C24.9057 27.2027 25.186 27.1549 25.4197 27.1549Z" fill="#009F65"/>
<path d="M14.4853 17.1936C14.3451 17.0978 14.2049 17.0978 14.0647 17.1457C13.9245 17.1936 13.8311 17.3373 13.7844 17.4809L11.261 28.7353C11.2143 28.9747 11.3545 29.2621 11.5881 29.3099C11.8218 29.3578 12.1021 29.2142 12.1489 28.9747L14.532 18.3909L26.6347 26.8196L25.8403 27.8253C24.5319 29.0226 24.2515 30.3156 24.0646 31.2735C23.9244 32.1355 23.831 32.3271 23.5039 32.4228C23.2702 32.4707 23.0833 32.7581 23.1768 32.9975C23.2235 33.237 23.4104 33.3807 23.644 33.3807C23.6908 33.3807 23.7375 33.3807 23.7375 33.3807C24.7188 33.1412 24.859 32.2792 24.9992 31.465C25.1861 30.603 25.373 29.5015 26.4945 28.4958L26.5412 28.4479L27.7094 27.0112C27.8029 26.9154 27.8496 26.7717 27.8029 26.6281C27.8029 26.4844 27.7094 26.3886 27.616 26.2928L14.4853 17.1936Z" fill="#009F65"/>
<path d="M36.7279 28.8789C35.7466 28.8789 35.5597 28.4958 35.1859 27.8253C34.8121 27.107 34.2981 26.1492 32.6626 25.6224L31.5878 25.2871C31.4944 25.2393 31.4476 25.1914 31.3542 25.0956C31.0738 24.8561 30.9336 24.473 30.9336 24.0899V20.0671C30.9336 19.7318 31.0271 19.4445 31.1205 19.1571C29.8121 19.1092 27.8963 19.3008 25.7468 19.636L19.1113 12.8356C19.0179 12.7398 18.831 12.6919 18.6908 12.6919C18.5506 12.7398 18.4104 12.8356 18.3637 12.9792L16.588 17.7683L17.3824 18.343L18.9712 14.0328L24.6253 19.8276C23.3169 20.0192 21.9618 20.3065 20.5599 20.546L27.9897 25.7182C28.2701 25.9097 28.457 26.1971 28.5037 26.5323C28.5037 26.6281 28.5037 26.676 28.5037 26.7718C29.2981 26.5802 30.0458 26.2928 30.7 25.9576L32.3355 26.4844C33.5971 26.9154 33.971 27.5859 34.3448 28.2564C34.7186 28.9747 35.1859 29.7889 36.7279 29.7889C37.0083 29.7889 37.1952 29.5973 37.1952 29.31C37.1952 29.0226 36.9616 28.8789 36.7279 28.8789Z" fill="#009F65"/>
<path d="M36.5411 21.0248C36.5411 21.3601 36.4943 21.6953 36.4009 21.9827C37.1018 22.2221 37.6158 22.5573 38.0364 23.2278C38.1298 23.3715 38.27 23.4673 38.4569 23.4673C38.5504 23.4673 38.5971 23.4673 38.6906 23.4194C38.9242 23.2757 38.9709 22.9884 38.8308 22.7489C38.2233 21.6953 37.4289 21.3122 36.5411 21.0248Z" fill="#009F65"/>
<path d="M34.6719 18.2951C35.0457 17.3851 35.8868 16.7626 36.8681 16.7626C37.1018 16.7626 37.3354 16.571 37.3354 16.2837C37.3354 15.9963 37.1018 15.8047 36.8681 15.8047C35.4196 15.8047 34.1579 16.8105 33.6906 18.1993H33.971C34.2514 18.1993 34.485 18.2472 34.6719 18.2951Z" fill="#009F65"/>
<path d="M38.9242 17.9119C37.756 17.6725 36.541 18.1035 35.7934 18.9655C36.027 19.205 36.214 19.4923 36.3541 19.7797C36.9149 19.0613 37.8494 18.6303 38.7373 18.8698C38.9709 18.9177 39.2513 18.774 39.298 18.4866C39.3448 18.1993 39.2046 17.9598 38.9242 17.9119Z" fill="#009F65"/>
</g>
</g>
</g>
</g>
<defs>
<clipPath id="clip0_47_258">
<rect width="146" height="47" fill="white"/>
</clipPath>
<clipPath id="clip1_47_258">
<rect width="90.7065" height="32" fill="white" transform="translate(55 7)"/>
</clipPath>
<clipPath id="clip2_47_258">
<rect width="47" height="47" fill="white"/>
</clipPath>
<clipPath id="clip3_47_258">
<rect width="30.8525" height="20.6888" fill="white" transform="translate(8.45435 12.6919)"/>
</clipPath>
<clipPath id="clip4_47_258">
<rect width="30.8525" height="20.6888" fill="white" transform="translate(8.45435 12.6919)"/>
</clipPath>
</defs>
</svg>
