<svg width="705" height="439" viewBox="0 0 705 439" fill="none" xmlns="http://www.w3.org/2000/svg">
<g clip-path="url(#clip0_1_2)">
<path d="M413.707 184.155L398.695 187.55C396.953 197.437 397.272 237.597 397.272 237.597L395.979 276.024C395.296 277.002 394.883 278.144 394.781 279.333C394.679 280.523 394.892 281.718 395.399 282.799C395.905 283.879 396.688 284.808 397.667 285.49C398.647 286.172 399.789 286.584 400.978 286.685C402.168 286.785 403.363 286.571 404.443 286.063C405.523 285.555 406.451 284.771 407.132 283.79C407.813 282.81 408.223 281.668 408.323 280.478C408.422 279.288 408.206 278.094 407.696 277.014L409.648 229.622L413.707 184.155Z" fill="#FFB6B6"/>
<path d="M396.358 145.503C398.691 145.003 401.106 145.024 403.431 145.564C405.755 146.103 407.932 147.149 409.807 148.625C411.681 150.102 413.207 151.973 414.277 154.107C415.346 156.24 415.931 158.583 415.992 160.969L416.239 170.683C416.239 170.683 420.04 220.196 416.546 229.866L411.589 257.787L395.67 259.819L394.886 230.444C394.886 230.444 399.589 198.014 394.486 192.752C391.361 189.53 386.372 176.184 383.869 164.734C383.424 162.651 383.394 160.501 383.781 158.407C384.168 156.312 384.964 154.315 386.125 152.528C387.285 150.742 388.786 149.202 390.542 147.996C392.297 146.791 394.274 145.944 396.358 145.503V145.503Z" fill="#00BFA6"/>
<path d="M284.611 407.906C284.496 407.906 284.384 407.871 284.29 407.804C284.197 407.737 284.127 407.643 284.089 407.534L261.255 243.242L215.519 407.668C215.436 407.788 215.308 407.87 215.165 407.896C215.021 407.922 214.873 407.89 214.753 407.807C214.633 407.724 214.55 407.597 214.523 407.454C214.497 407.31 214.528 407.162 214.61 407.041L260.966 241.716C261.024 241.632 261.105 241.566 261.198 241.525C261.291 241.484 261.394 241.469 261.495 241.482C261.596 241.496 261.691 241.537 261.77 241.602C261.849 241.667 261.909 241.753 261.942 241.849L285.133 407.175C285.161 407.258 285.169 407.347 285.157 407.434C285.144 407.521 285.111 407.603 285.06 407.675C285.009 407.746 284.941 407.805 284.863 407.845C284.785 407.885 284.699 407.906 284.611 407.906V407.906Z" fill="#E6E6E6"/>
<path d="M251.761 407.906C251.682 407.907 251.604 407.89 251.532 407.857C251.46 407.824 251.395 407.776 251.343 407.717C251.291 407.657 251.253 407.587 251.231 407.511C251.209 407.435 251.203 407.355 251.214 407.276L260.874 241.951C260.894 241.806 260.972 241.675 261.089 241.587C261.206 241.499 261.353 241.462 261.498 241.482C261.643 241.503 261.774 241.58 261.862 241.698C261.95 241.815 261.987 241.962 261.967 242.107L252.307 407.433C252.288 407.564 252.223 407.684 252.122 407.771C252.022 407.858 251.894 407.906 251.761 407.906V407.906Z" fill="#E6E6E6"/>
<path d="M335.93 210.314C336.296 211.761 336.201 213.286 335.66 214.677C335.119 216.068 334.158 217.255 332.91 218.074C332.53 218.326 332.127 218.539 331.705 218.711L229.135 260.936C227.375 261.659 225.4 261.655 223.643 260.923C221.886 260.191 220.492 258.791 219.766 257.032C219.637 256.718 219.53 256.395 219.447 256.066C219.023 254.392 219.216 252.621 219.992 251.079C220.768 249.536 222.074 248.326 223.671 247.668L326.241 205.444C326.265 205.433 326.289 205.425 326.314 205.42C327.263 205.04 328.281 204.868 329.302 204.914C330.322 204.96 331.321 205.223 332.232 205.687C333.142 206.15 333.943 206.802 334.581 207.6C335.219 208.398 335.678 209.324 335.93 210.314V210.314Z" fill="#E6E6E6"/>
<path d="M230.577 233.783C231.357 233.585 232.184 233.705 232.876 234.116C233.568 234.527 234.069 235.197 234.267 235.977L236.307 243.999C236.506 244.779 236.386 245.606 235.975 246.298C235.563 246.99 234.894 247.49 234.114 247.689V247.689C233.334 247.887 232.507 247.768 231.815 247.356C231.123 246.945 230.623 246.276 230.424 245.495L228.384 237.473C228.286 237.087 228.264 236.685 228.322 236.29C228.379 235.896 228.513 235.517 228.716 235.174C228.92 234.831 229.189 234.532 229.509 234.294C229.828 234.055 230.191 233.882 230.577 233.783V233.783Z" fill="#E6E6E6"/>
<path d="M224.422 234.21L236.188 231.217C236.685 231.091 237.211 231.167 237.651 231.429C238.092 231.691 238.41 232.117 238.536 232.613V232.613C238.663 233.11 238.586 233.636 238.325 234.076C238.063 234.517 237.637 234.835 237.141 234.961L225.374 237.954C225.129 238.016 224.873 238.03 224.622 237.993C224.371 237.957 224.129 237.872 223.911 237.742C223.693 237.613 223.503 237.441 223.351 237.238C223.199 237.035 223.089 236.804 223.026 236.558C222.9 236.062 222.976 235.535 223.238 235.095C223.5 234.655 223.926 234.336 224.422 234.21V234.21Z" fill="#E6E6E6"/>
<path d="M219.889 257.548C219.236 256.206 219.017 254.694 219.264 253.221C219.51 251.749 220.209 250.391 221.263 249.334C222.988 249.369 224.669 249.878 226.123 250.806C227.576 251.735 228.746 253.046 229.502 254.596C230.384 256.387 230.664 258.415 230.301 260.378C229.449 260.943 228.487 261.32 227.479 261.483C226.471 261.646 225.439 261.592 224.453 261.324C223.467 261.056 222.55 260.58 221.763 259.929C220.976 259.278 220.337 258.466 219.889 257.548V257.548Z" fill="#CCCCCC"/>
<path d="M387.642 416.606C387.673 415.811 383.468 415.003 378.248 414.799C373.029 414.596 368.773 415.074 368.742 415.869C368.711 416.663 372.917 417.472 378.136 417.675C383.355 417.879 387.611 417.4 387.642 416.606Z" fill="#E6E6E6"/>
<path d="M447.503 422.181C447.534 421.386 443.328 420.578 438.109 420.374C432.89 420.17 428.634 420.649 428.603 421.444C428.572 422.238 432.778 423.047 437.997 423.25C443.216 423.454 447.472 422.975 447.503 422.181Z" fill="#3F3D56"/>
<path d="M363.412 425.922C363.443 425.128 359.238 424.319 354.019 424.116C348.8 423.912 344.544 424.391 344.513 425.185C344.482 425.98 348.687 426.788 353.906 426.992C359.125 427.195 363.381 426.717 363.412 425.922Z" fill="#FF6584"/>
<path d="M427.97 434.919C428.001 434.125 423.795 433.316 418.576 433.112C413.357 432.909 409.101 433.388 409.07 434.182C409.039 434.976 413.245 435.785 418.464 435.989C423.683 436.192 427.939 435.713 427.97 434.919Z" fill="#FF6584"/>
<path d="M333.989 428.087C333.992 427.372 332.114 426.784 329.794 426.772C327.474 426.761 325.59 427.331 325.587 428.046C325.583 428.761 327.461 429.349 329.782 429.36C332.102 429.371 333.986 428.801 333.989 428.087Z" fill="#E6E6E6"/>
<path d="M357.214 433.445C357.218 432.73 355.34 432.142 353.02 432.131C350.699 432.12 348.816 432.69 348.812 433.404C348.809 434.119 350.687 434.707 353.007 434.719C355.327 434.73 357.211 434.16 357.214 433.445Z" fill="#E6E6E6"/>
<path d="M319.241 435.458C319.245 434.744 317.367 434.155 315.046 434.144C312.726 434.133 310.843 434.703 310.839 435.418C310.836 436.133 312.714 436.721 315.034 436.732C317.354 436.743 319.238 436.173 319.241 435.458Z" fill="#3F3D56"/>
<path d="M399.071 426.302C399.075 425.588 397.197 424.999 394.877 424.988C392.556 424.977 390.673 425.547 390.669 426.262C390.666 426.977 392.544 427.565 394.864 427.576C397.184 427.587 399.068 427.017 399.071 426.302Z" fill="#E6E6E6"/>
<path d="M371.964 421.091C371.967 420.377 370.089 419.788 367.769 419.777C365.449 419.766 363.565 420.336 363.561 421.051C363.558 421.766 365.436 422.354 367.756 422.365C370.077 422.376 371.96 421.806 371.964 421.091Z" fill="#FF6584"/>
<path d="M417.026 418.209C417.03 417.494 415.152 416.905 412.831 416.894C410.511 416.883 408.627 417.453 408.624 418.168C408.621 418.883 410.499 419.471 412.819 419.482C415.139 419.493 417.023 418.923 417.026 418.209Z" fill="#3F3D56"/>
<path d="M382.78 433.692C382.783 432.977 380.905 432.389 378.585 432.378C376.264 432.367 374.381 432.937 374.377 433.651C374.374 434.366 376.252 434.954 378.572 434.966C380.892 434.977 382.776 434.407 382.78 433.692Z" fill="#3F3D56"/>
<path d="M297.556 19.907L295.67 20.071L295.244 21.916L294.504 20.173L292.618 20.338L294.047 19.096L293.307 17.353L294.93 18.328L296.359 17.086L295.933 18.931L297.556 19.907Z" fill="white"/>
<path d="M674.556 17.907L672.67 18.071L672.244 19.916L671.504 18.173L669.618 18.338L671.047 17.096L670.307 15.353L671.93 16.328L673.359 15.086L672.933 16.931L674.556 17.907Z" fill="white"/>
<path d="M410.662 203.622L413.927 153.044C414.072 150.902 415.053 148.902 416.659 147.477C418.265 146.051 420.367 145.315 422.511 145.425V145.425C423.621 145.483 424.707 145.765 425.703 146.256C426.7 146.747 427.586 147.435 428.308 148.28C429.03 149.124 429.572 150.107 429.901 151.168C430.231 152.228 430.341 153.345 430.225 154.45L425.223 206.884L423.527 238.872C424.845 239.514 425.934 240.545 426.646 241.827C427.357 243.108 427.657 244.578 427.504 246.036C427.352 247.494 426.754 248.869 425.792 249.975C424.83 251.082 423.551 251.865 422.129 252.219C420.707 252.573 419.209 252.481 417.841 251.955C416.473 251.429 415.3 250.494 414.482 249.278C413.663 248.062 413.239 246.623 413.267 245.157C413.294 243.692 413.773 242.27 414.636 241.086L410.662 203.622Z" fill="#A0616A"/>
<path d="M409.907 164.343C409.55 163.953 409.331 163.457 409.283 162.931C409.235 162.405 409.362 161.878 409.643 161.431C409.979 160.872 410.132 160.222 410.081 159.573C410.07 159.447 410.05 159.322 410.023 159.199C409.838 158.462 409.834 157.692 410.012 156.953C410.189 156.214 410.542 155.529 411.04 154.956C412.708 153.093 413.585 150.213 414.012 147.633C414.314 144.785 414.959 141.984 415.932 139.291C417.562 135.499 421.249 132.199 426.055 134.015C428.087 134.819 429.779 136.299 430.848 138.205C433.134 142.16 432.992 146.839 432.813 151.313L433.749 149.576C433.469 154.459 434.177 159.349 435.833 163.952C434.756 163.702 433.936 165.131 434.249 166.191C434.702 167.204 435.413 168.081 436.31 168.733C437.323 169.689 438.262 171.089 437.229 172.457C436.973 172.777 436.654 173.041 436.291 173.232C435.928 173.423 435.529 173.537 435.12 173.566C427.403 174.288 419.62 173.407 412.26 170.977C410.626 170.436 408.88 169.704 408.074 168.183C407.268 166.662 408.188 164.257 409.907 164.343Z" fill="#F2F2F2"/>
<path d="M477.379 422.297H486.296L490.539 387.905H477.379V422.297Z" fill="#A0616A"/>
<path d="M474.469 416.19L488.714 415.34V421.443L502.258 430.797C502.927 431.258 503.43 431.922 503.695 432.691C503.961 433.459 503.973 434.292 503.731 435.068C503.489 435.844 503.006 436.523 502.351 437.005C501.696 437.486 500.904 437.746 500.091 437.746H483.132L480.209 431.709L479.067 437.746H472.673L474.469 416.19Z" fill="#2F2E41"/>
<path d="M429.441 414.444L437.746 417.69L454.219 387.203L441.962 382.412L429.441 414.444Z" fill="#A0616A"/>
<path d="M428.954 407.697L442.532 412.091L440.31 417.776L449.519 431.418C449.974 432.091 450.201 432.893 450.168 433.705C450.135 434.517 449.844 435.298 449.336 435.933C448.828 436.567 448.131 437.023 447.345 437.233C446.56 437.444 445.728 437.397 444.971 437.102L429.175 430.927L428.651 424.241L425.39 429.448L419.434 427.12L428.954 407.697Z" fill="#2F2E41"/>
<path d="M435.048 199.948H476.648C476.648 199.948 492.314 311.828 492.359 312.032C492.404 312.236 483.518 315.467 487.557 319.506L491.596 323.545C494.827 326.776 489.198 337.818 489.198 337.818L495.635 403.52H469.047L456.052 267.805L473.632 332.869L450.728 403.52L434.241 393.826L431.009 384.94L437.429 378.52C437.429 378.52 439.088 368.872 439.088 363.173C439.088 357.474 434.241 362.321 439.088 357.474C441.185 355.377 447.088 329.646 447.088 329.646L427.778 267.805L423.177 240.2C421.993 233.085 423.058 225.777 426.223 219.295C428.781 214.049 432.004 207.178 435.048 199.948Z" fill="#2F2E41"/>
<path d="M432.625 131.283L435.39 122.989C436.005 121.144 437.157 119.524 438.699 118.338C440.241 117.153 442.102 116.455 444.044 116.334L446.5 116.181C448.686 116.046 450.853 116.649 452.655 117.894C454.456 119.138 455.786 120.953 456.432 123.045V123.045C456.998 124.896 458.104 126.536 459.607 127.755C461.111 128.974 462.945 129.716 464.873 129.886C472.053 130.498 482.71 132.669 482.71 140.169C482.71 151.479 470.593 181.368 473.016 183.792C475.44 186.215 481.094 196.202 477.863 199.14C477.021 199.906 477.7 203.588 477.969 206.226C478.458 211.003 444.742 200.442 435.048 203.179C425.354 205.917 430.201 185.407 428.586 183.792C427.069 181.943 425.718 179.965 424.546 177.88C423.973 176.921 423.57 175.87 423.354 174.774L420.572 160.692C420.526 160.457 420.489 160.228 420.46 159.99C420.092 156.976 417.94 136.696 426.162 133.706C435.048 130.475 432.625 131.283 432.625 131.283Z" fill="#F2F2F2"/>
<path d="M470.271 205.661L468.999 154.994C468.951 152.847 469.749 150.768 471.221 149.205C472.693 147.641 474.721 146.72 476.867 146.638C477.977 146.596 479.084 146.78 480.12 147.18C481.157 147.58 482.101 148.186 482.896 148.963C483.69 149.739 484.318 150.669 484.741 151.696C485.164 152.723 485.374 153.826 485.357 154.937L485.065 207.607L486.237 239.62C487.608 240.14 488.784 241.07 489.608 242.283C490.431 243.496 490.861 244.933 490.839 246.398C490.818 247.864 490.345 249.288 489.487 250.476C488.628 251.664 487.424 252.558 486.039 253.038C484.654 253.518 483.154 253.56 481.745 253.158C480.335 252.757 479.083 251.931 478.159 250.793C477.235 249.654 476.684 248.26 476.58 246.797C476.477 245.335 476.826 243.876 477.58 242.62L470.271 205.661Z" fill="#A0616A"/>
<path d="M464.602 165.436C464.212 165.08 463.949 164.605 463.855 164.085C463.76 163.566 463.839 163.029 464.079 162.559C464.363 161.972 464.458 161.312 464.349 160.669C464.327 160.545 464.296 160.422 464.257 160.302C464.008 159.585 463.935 158.818 464.046 158.066C464.156 157.314 464.446 156.6 464.891 155.985C466.386 153.98 467.002 151.034 467.197 148.426C467.242 145.562 467.634 142.715 468.362 139.945C469.646 136.022 473.024 132.406 477.972 133.785C480.068 134.404 481.886 135.726 483.121 137.529C485.752 141.264 486.029 145.936 486.251 150.409L487.028 148.595C487.185 153.484 488.329 158.291 490.389 162.727C489.294 162.575 488.606 164.072 489.012 165.099C489.554 166.067 490.34 166.877 491.292 167.447C492.387 168.308 493.447 169.618 492.541 171.073C492.315 171.415 492.02 171.707 491.676 171.929C491.331 172.152 490.944 172.301 490.54 172.367C482.918 173.776 475.088 173.594 467.54 171.832C465.864 171.44 464.059 170.867 463.12 169.424C462.181 167.981 462.882 165.504 464.602 165.436Z" fill="#F2F2F2"/>
<path d="M443.757 117.552C453.573 117.552 461.529 109.595 461.529 99.7796C461.529 89.9643 453.573 82.0075 443.757 82.0075C433.942 82.0075 425.985 89.9643 425.985 99.7796C425.985 109.595 433.942 117.552 443.757 117.552Z" fill="#A0616A"/>
<path d="M426.964 126.784C426.974 124.703 429.705 123.614 431.686 124.265C433.659 124.92 435.081 126.6 436.668 127.938C438.259 129.283 440.463 130.356 442.365 129.518C444.168 128.719 444.897 126.584 446.248 125.152C447.879 123.632 450.011 122.764 452.24 122.714C452.195 122.511 452.15 122.308 452.123 122.106C451.941 121.035 451.896 119.946 451.989 118.864C452.443 119.79 453.04 120.639 453.756 121.381C454.208 121.852 454.709 122.273 455.25 122.639C457.485 122.813 459.734 122.643 461.917 122.137C464.526 121.367 466.969 119.061 466.765 116.338C466.602 115.336 466.203 114.387 465.601 113.57C464.999 112.752 464.211 112.09 463.303 111.637C461.549 110.622 467.695 106.123 465.865 105.263C464.104 104.487 462.519 103.362 461.204 101.956C459.89 100.551 458.874 98.8937 458.217 97.085C457.682 95.4789 457.537 93.7688 457.793 92.0955C458.048 90.4222 458.698 88.8336 459.687 87.4603C461.304 87.2557 454.902 88.024 456.436 87.4646C456.255 86.3934 456.18 88.1917 456.273 87.1124C456.727 88.0417 457.357 85.9995 458.069 86.7399C459.441 86.0454 460.512 84.874 461.082 83.4455C462.254 80.321 460.266 79.7089 457.685 77.5882C455.727 75.9836 453.416 74.8668 450.942 74.3299C448.468 73.7931 445.901 73.8514 443.454 74.5002C441.007 75.149 438.749 76.3697 436.866 78.0618C434.983 79.7538 433.528 81.8689 432.623 84.2329C428.711 82.2763 423.678 84.1202 420.942 87.5402C418.217 90.9638 417.392 95.5368 417.36 99.9117C417.313 109.718 420.712 119.229 426.964 126.784V126.784Z" fill="#2F2E41"/>
<path d="M362.459 429.863L354.134 429.862L350.174 397.753L362.46 397.754L362.459 429.863Z" fill="#FFB6B6"/>
<path d="M362.752 438.547L337.153 438.546V438.222C337.153 435.579 338.203 433.045 340.072 431.177C341.94 429.308 344.474 428.258 347.117 428.258H347.117L351.793 424.711L360.518 428.259H362.752L362.752 438.547Z" fill="#2F2E41"/>
<path d="M400.293 429.863L391.969 429.862L388.009 397.753L400.295 397.754L400.293 429.863Z" fill="#FFB6B6"/>
<path d="M400.586 438.547L374.987 438.546V438.222C374.987 435.579 376.037 433.045 377.906 431.177C379.774 429.308 382.309 428.258 384.951 428.258H384.952L389.628 424.711L398.352 428.259H400.586L400.586 438.547Z" fill="#2F2E41"/>
<path d="M342.22 223.716C342.22 223.716 328.767 240.402 331.376 244.728C333.984 249.054 338.188 247.556 333.984 252.089C329.78 256.621 328.096 256.674 331.04 260.011C333.984 263.347 336.541 336.275 336.541 336.275L349.958 412.162L364.725 413.492C364.725 413.492 367.48 404.217 367.547 400.623C367.614 397.028 367.614 400.16 367.614 392.709C367.614 385.257 364.958 391.03 367.547 383.94C370.137 376.85 373.365 355.963 367.547 345.808C361.729 335.653 366.302 344.563 366.302 344.563L370.809 275.74L379.385 346.582C379.385 346.582 379.385 370.964 383.589 388.62L384.284 413.492L402.403 412.8C402.403 412.8 407.13 405.436 405.449 397.028C403.767 388.62 410.493 384.417 410.493 380.213C410.493 376.009 410.139 335.798 410.139 335.798L406.21 252.089C406.21 252.089 409.652 233.08 402.086 225.513C394.519 217.946 342.22 223.716 342.22 223.716Z" fill="#2F2E41"/>
<path d="M358.336 134.935L369.947 121.861L388.293 123.9L400.039 140.338C413.02 143.326 415.414 153.939 413.135 167.064C408.577 193.31 397.325 211.657 402.44 224.607C410.204 244.265 406.439 259.392 387.854 256.636C369.269 253.88 326.442 235.68 338.513 223.608C350.585 211.536 346.893 196.115 346.893 196.115L348.267 159.057C346.097 147.288 346.432 136.167 358.336 134.935L358.336 134.935Z" fill="#00BFA6"/>
<path d="M352.759 179.821L339.824 171.479C331.546 177.159 303.097 205.507 303.097 205.507L274.757 231.491C273.58 231.688 272.476 232.192 271.555 232.952C270.635 233.712 269.931 234.701 269.514 235.82C269.097 236.938 268.982 238.147 269.181 239.324C269.38 240.501 269.885 241.605 270.646 242.525C271.407 243.444 272.397 244.147 273.516 244.563C274.636 244.978 275.844 245.091 277.021 244.891C278.198 244.691 279.301 244.184 280.22 243.422C281.139 242.66 281.84 241.669 282.254 240.549L317.457 208.759L352.759 179.821Z" fill="#FFB6B6"/>
<path d="M368.207 140.37C370.198 141.686 371.874 143.425 373.116 145.462C374.358 147.499 375.137 149.786 375.395 152.158C375.653 154.53 375.386 156.93 374.611 159.187C373.836 161.444 372.574 163.503 370.913 165.217L364.151 172.196C364.151 172.196 331.463 209.577 322.113 213.855L298.708 229.866L286.11 219.923L306.534 198.795C306.534 198.795 332.979 179.445 333.163 172.117C333.275 167.63 339.31 154.724 345.732 144.919C346.908 143.143 348.422 141.616 350.188 140.426C351.955 139.236 353.938 138.406 356.026 137.983C358.114 137.561 360.264 137.554 362.354 137.963C364.444 138.373 366.433 139.191 368.207 140.37V140.37Z" fill="#00BFA6"/>
<path d="M400.302 104.868C403.82 95.0026 398.674 84.1533 388.809 80.6355C378.943 77.1177 368.094 82.2634 364.576 92.1289C361.058 101.994 366.204 112.844 376.07 116.361C385.935 119.879 396.784 114.734 400.302 104.868Z" fill="#FFB6B6"/>
<path d="M372.619 76.8799C373.415 75.4913 374.514 74.2995 375.833 73.393C376.467 73.0226 377.172 72.7901 377.902 72.7107C378.632 72.6313 379.37 72.7069 380.069 72.9323C380.767 73.1578 381.411 73.5281 381.956 74.0191C382.502 74.5101 382.938 75.1108 383.236 75.7818C383.246 74.8703 383.474 73.9744 383.901 73.1687C384.982 74.2596 386.23 75.1723 387.597 75.8728L385.607 71.4328C393.151 70.8613 398.476 72.9363 400.869 78.5089C401.554 80.1043 404.13 80.0791 404.884 81.7426C405.639 83.4062 404.764 86.0704 403.006 86.2213C406.385 86.1617 405.347 89.0093 406.339 92.4376C407.331 95.8659 406.772 99.7219 405.66 103.26C404.218 107.847 400.172 110.851 396.221 113.198C393.637 114.733 388.492 117.062 388.466 117.076C374.259 124.531 365.202 109.321 368.584 94.3071C369.347 90.9163 372.118 87.2399 370.132 84.698C368.587 82.719 365.659 83.0841 363.206 83.6075C364.162 80.3161 370.771 79.7432 372.619 76.8799Z" fill="#2F2E41"/>
<path d="M610.895 417.888C610.926 417.094 606.316 416.27 600.599 416.047C594.881 415.824 590.221 416.287 590.19 417.081C590.159 417.875 594.769 418.7 600.486 418.923C606.204 419.146 610.864 418.683 610.895 417.888Z" fill="#E6E6E6"/>
<path d="M676.483 423.687C676.514 422.893 671.904 422.068 666.187 421.845C660.47 421.622 655.81 422.085 655.779 422.879C655.748 423.674 660.357 424.498 666.075 424.721C671.792 424.944 676.452 424.481 676.483 423.687Z" fill="#3F3D56"/>
<path d="M584.391 427.119C584.422 426.325 579.813 425.5 574.095 425.277C568.378 425.054 563.718 425.517 563.687 426.312C563.656 427.106 568.266 427.93 573.983 428.153C579.7 428.376 584.36 427.913 584.391 427.119Z" fill="#FF6584"/>
<path d="M655.135 436.354C655.166 435.56 650.556 434.736 644.839 434.513C639.121 434.29 634.461 434.753 634.43 435.547C634.399 436.341 639.009 437.166 644.727 437.389C650.444 437.612 655.104 437.149 655.135 436.354Z" fill="#FF6584"/>
<path d="M552.166 429.172C552.172 428.458 550.116 427.861 547.575 427.84C545.033 427.819 542.968 428.381 542.962 429.096C542.956 429.81 545.012 430.407 547.553 430.428C550.095 430.449 552.16 429.887 552.166 429.172Z" fill="#E6E6E6"/>
<path d="M577.629 434.619C577.635 433.905 575.579 433.308 573.038 433.287C570.496 433.266 568.431 433.828 568.425 434.543C568.419 435.258 570.475 435.854 573.016 435.875C575.557 435.896 577.623 435.334 577.629 434.619Z" fill="#E6E6E6"/>
<path d="M536.048 436.491C536.054 435.776 533.999 435.18 531.457 435.158C528.916 435.137 526.85 435.699 526.845 436.414C526.839 437.129 528.894 437.725 531.435 437.747C533.977 437.768 536.042 437.205 536.048 436.491Z" fill="#3F3D56"/>
<path d="M623.455 427.63C623.461 426.915 621.406 426.318 618.864 426.297C616.323 426.276 614.258 426.838 614.252 427.553C614.246 428.268 616.301 428.864 618.843 428.885C621.384 428.907 623.449 428.344 623.455 427.63Z" fill="#E6E6E6"/>
<path d="M593.744 422.317C593.749 421.603 591.694 421.006 589.153 420.985C586.611 420.964 584.546 421.526 584.54 422.241C584.534 422.955 586.59 423.552 589.131 423.573C591.672 423.594 593.738 423.032 593.744 422.317Z" fill="#FF6584"/>
<path d="M643.086 419.603C643.092 418.889 641.037 418.292 638.495 418.271C635.954 418.25 633.889 418.812 633.883 419.527C633.877 420.241 635.932 420.838 638.474 420.859C641.015 420.88 643.08 420.318 643.086 419.603Z" fill="#3F3D56"/>
<path d="M605.632 434.962C605.638 434.247 603.582 433.65 601.041 433.629C598.499 433.608 596.434 434.17 596.428 434.885C596.422 435.6 598.478 436.196 601.019 436.217C603.561 436.238 605.626 435.676 605.632 434.962Z" fill="#3F3D56"/>
<path d="M224.642 417.606C224.673 416.811 220.467 416.003 215.248 415.799C210.029 415.596 205.773 416.074 205.742 416.869C205.711 417.663 209.917 418.472 215.136 418.675C220.355 418.879 224.611 418.4 224.642 417.606Z" fill="#E6E6E6"/>
<path d="M284.503 423.181C284.534 422.386 280.328 421.578 275.109 421.374C269.89 421.17 265.634 421.649 265.603 422.444C265.572 423.238 269.778 424.047 274.997 424.25C280.216 424.454 284.472 423.975 284.503 423.181Z" fill="#3F3D56"/>
<path d="M200.412 426.922C200.443 426.128 196.238 425.319 191.019 425.116C185.799 424.912 181.543 425.391 181.512 426.185C181.482 426.98 185.687 427.788 190.906 427.992C196.125 428.195 200.381 427.717 200.412 426.922Z" fill="#FF6584"/>
<path d="M264.97 435.919C265.001 435.125 260.795 434.316 255.576 434.112C250.357 433.909 246.101 434.388 246.07 435.182C246.039 435.976 250.245 436.785 255.464 436.989C260.683 437.192 264.939 436.713 264.97 435.919Z" fill="#FF6584"/>
<path d="M170.988 429.087C170.992 428.372 169.114 427.784 166.794 427.773C164.473 427.761 162.59 428.332 162.586 429.046C162.583 429.761 164.461 430.349 166.781 430.361C169.101 430.372 170.985 429.801 170.988 429.087Z" fill="#E6E6E6"/>
<path d="M194.214 434.445C194.218 433.73 192.34 433.142 190.02 433.131C187.699 433.12 185.816 433.69 185.812 434.404C185.809 435.119 187.687 435.707 190.007 435.719C192.327 435.73 194.211 435.16 194.214 434.445Z" fill="#E6E6E6"/>
<path d="M156.241 436.458C156.245 435.744 154.367 435.155 152.046 435.144C149.726 435.133 147.843 435.703 147.839 436.418C147.836 437.133 149.714 437.721 152.034 437.732C154.354 437.743 156.238 437.173 156.241 436.458Z" fill="#3F3D56"/>
<path d="M236.071 427.302C236.075 426.588 234.197 425.999 231.877 425.988C229.556 425.977 227.673 426.547 227.669 427.262C227.666 427.977 229.544 428.565 231.864 428.576C234.184 428.587 236.068 428.017 236.071 427.302Z" fill="#E6E6E6"/>
<path d="M208.964 422.091C208.967 421.377 207.089 420.788 204.769 420.777C202.449 420.766 200.565 421.336 200.561 422.051C200.558 422.766 202.436 423.354 204.756 423.365C207.077 423.376 208.96 422.806 208.964 422.091Z" fill="#FF6584"/>
<path d="M254.026 419.209C254.03 418.494 252.152 417.905 249.831 417.894C247.511 417.883 245.627 418.453 245.624 419.168C245.621 419.883 247.499 420.471 249.819 420.482C252.139 420.493 254.023 419.923 254.026 419.209Z" fill="#3F3D56"/>
<path d="M219.78 434.692C219.783 433.977 217.905 433.389 215.585 433.378C213.264 433.367 211.381 433.937 211.377 434.651C211.374 435.366 213.252 435.954 215.572 435.966C217.892 435.977 219.776 435.407 219.78 434.692Z" fill="#3F3D56"/>
<path d="M94.6848 335.632C84.94 325.582 70.8182 319.818 55.9406 319.818L55.3667 319.82C45.5673 319.824 35.9426 317.225 27.4772 312.288L26.5963 311.775L27.3058 311.044C31.1469 307.07 34.3542 302.529 36.8154 297.58C35.0674 299.21 32.9826 300.436 30.7085 301.17C28.4344 301.905 26.0266 302.131 23.6556 301.832C21.1523 301.533 18.7491 300.672 16.6263 299.312C14.5035 297.952 12.7161 296.13 11.3982 293.981C6.19832 285.544 0 273.572 0 264.453C0.00809103 256.744 1.62212 249.122 4.73921 242.071C7.85631 235.021 12.4081 228.698 18.1044 223.504C21.7107 220.252 24.5912 216.277 26.5581 211.838C28.525 207.398 29.5341 202.594 29.5197 197.738L29.5168 197.047C29.5159 190.654 30.2971 184.285 31.8431 178.082L32.0001 177.455L32.6446 177.478C36.8007 177.619 40.959 177.271 45.0336 176.44C41.2116 175.971 37.4727 174.977 33.9228 173.485L33.2295 173.204L33.4648 172.494C51.2316 148.515 89.2847 136.269 107.549 119.03C138.84 89.4964 185.581 154.028 185.581 197.047C185.581 201.436 181.237 207.237 184.489 210.138C219.644 241.501 195.388 261.641 187.74 281.906C185.926 286.714 189.86 291.992 189.86 297.194C189.86 298.077 189.837 298.988 189.793 299.902L189.725 301.308L188.553 300.528C186.234 299.009 184.085 297.246 182.142 295.269C184.158 299.908 185.108 304.941 184.922 309.996C184.736 315.051 183.419 320 181.068 324.479C177.384 331.432 173.82 336.41 170.475 339.274C159.759 348.444 145.945 353.174 131.857 352.497C117.769 351.821 104.472 345.788 94.6849 335.632L94.6848 335.632Z" fill="#00BFA6"/>
<path d="M154.017 439.291C154.256 439.291 154.488 439.204 154.669 439.047C154.849 438.89 154.968 438.673 155.001 438.436C155.044 438.139 159.187 408.255 155.466 368.538C152.029 331.858 140.992 279.026 107.93 235.636C107.851 235.532 107.752 235.444 107.639 235.378C107.526 235.311 107.401 235.268 107.271 235.25C107.141 235.233 107.009 235.241 106.883 235.274C106.756 235.307 106.637 235.365 106.533 235.445C106.429 235.524 106.341 235.624 106.275 235.737C106.209 235.85 106.167 235.975 106.149 236.105C106.132 236.235 106.141 236.367 106.174 236.494C106.208 236.621 106.267 236.739 106.346 236.843C139.123 279.858 150.07 332.302 153.483 368.723C157.183 408.209 153.072 437.86 153.03 438.155C153.01 438.297 153.02 438.441 153.061 438.577C153.101 438.714 153.171 438.841 153.264 438.948C153.358 439.056 153.473 439.143 153.603 439.202C153.733 439.261 153.874 439.291 154.017 439.291V439.291Z" fill="#3F3D56"/>
<path d="M123.829 295.742C124.039 295.742 124.244 295.675 124.414 295.552C124.584 295.428 124.711 295.254 124.776 295.054C124.841 294.854 124.841 294.639 124.776 294.438C124.711 294.238 124.585 294.064 124.415 293.94C114.994 287.564 104.817 282.383 94.118 278.518C77.4027 272.398 51.9846 266.85 25.8172 275.179C25.5655 275.259 25.356 275.435 25.2347 275.67C25.1134 275.904 25.0903 276.178 25.1704 276.429C25.2504 276.681 25.4272 276.89 25.6617 277.012C25.8963 277.133 26.1694 277.156 26.421 277.076C52.0524 268.919 77.0097 274.375 93.4332 280.388C103.96 284.187 113.974 289.281 123.244 295.551C123.414 295.675 123.618 295.742 123.829 295.742V295.742Z" fill="#3F3D56"/>
<path d="M170.084 178.14C170.099 177.93 170.048 177.721 169.937 177.542C169.826 177.363 169.661 177.224 169.466 177.145C169.272 177.066 169.057 177.05 168.852 177.1C168.648 177.151 168.465 177.265 168.33 177.425C161.291 186.362 155.391 196.14 150.765 206.533C143.458 222.764 136.094 247.717 142.516 274.416C142.546 274.543 142.601 274.664 142.678 274.77C142.755 274.876 142.852 274.966 142.964 275.034C143.075 275.103 143.199 275.149 143.329 275.169C143.458 275.19 143.59 275.185 143.718 275.154C143.845 275.123 143.965 275.068 144.071 274.991C144.177 274.914 144.266 274.816 144.335 274.705C144.403 274.593 144.448 274.469 144.468 274.339C144.489 274.21 144.483 274.077 144.452 273.95C138.162 247.798 145.401 223.298 152.581 207.35C157.129 197.124 162.93 187.503 169.852 178.709C169.988 178.549 170.069 178.349 170.084 178.14V178.14Z" fill="#3F3D56"/>
<path d="M191 89C200.941 89 209 80.9411 209 71C209 61.0589 200.941 53 191 53C181.059 53 173 61.0589 173 71C173 80.9411 181.059 89 191 89Z" fill="#3F3D56"/>
<path d="M536.487 129.983C546.429 129.983 554.487 121.924 554.487 111.983C554.487 102.042 546.429 93.983 536.487 93.983C526.546 93.983 518.487 102.042 518.487 111.983C518.487 121.924 526.546 129.983 536.487 129.983Z" fill="#3F3D56"/>
</g>
<defs>
<clipPath id="clip0_1_2">
<rect width="705" height="439" fill="white"/>
</clipPath>
</defs>
</svg>
