<svg width="47" height="50" viewBox="0 0 47 50" fill="none" xmlns="http://www.w3.org/2000/svg">
<g clip-path="url(#clip0_27_3)">
<path d="M0 25.4999C0 12.5212 10.5214 2 23.4999 2C36.4787 2 46.9999 12.5214 47.0001 25.4999C47.0001 38.4787 36.4787 48.9999 23.4999 49.0001C10.5212 49.0001 0 38.4787 0 25.4999ZM23.4999 47.1647C35.4651 47.1647 45.1647 37.4651 45.1647 25.4999C45.1647 13.5348 35.4651 3.83515 23.4999 3.83536C11.5348 3.83536 1.83515 13.535 1.83536 25.4999C1.83536 37.4651 11.535 47.1647 23.4999 47.1647Z" fill="#009F65"/>
<path d="M32.3355 26.5209C32.3355 26.5209 32.3822 26.5209 32.3355 26.5209C34.3448 26.4251 35.8401 24.7489 35.8401 22.7375C35.8401 21.7318 34.999 20.9177 34.0177 20.9177H32.9897C32.3822 20.9177 31.8682 21.4445 31.8682 22.067V26.0899C31.8682 26.2335 31.915 26.3293 32.0084 26.4251C32.1019 26.473 32.2421 26.5209 32.3355 26.5209Z" fill="#009F65"/>
<path d="M9.81241 24.0305C9.76568 24.0305 9.76568 24.0305 9.71896 24.0305C9.01803 24.1263 8.50402 24.8447 8.45729 25.7067C8.41056 26.6166 8.92457 27.335 9.67223 27.5266C9.71896 27.5266 9.76568 27.5266 9.81241 27.5266C10.1862 27.4787 10.7003 27.5266 11.2143 27.5744L12.0554 23.9348C11.1675 24.0305 10.3732 24.0784 9.81241 24.0305Z" fill="#009F65"/>
<path d="M25.4197 29.1549L25.6066 28.9633L17.2422 23.1685C16.3076 23.3122 15.3731 23.5038 14.532 23.5995L13.5507 27.8618C14.1581 27.9576 14.8123 28.0534 15.5133 28.1491C18.317 28.6281 21.5879 29.1549 24.6253 29.1549C24.9057 29.2027 25.186 29.1549 25.4197 29.1549Z" fill="#009F65"/>
<path d="M14.4853 19.1936C14.3451 19.0978 14.2049 19.0978 14.0647 19.1457C13.9245 19.1936 13.8311 19.3373 13.7844 19.4809L11.261 30.7353C11.2143 30.9747 11.3545 31.2621 11.5881 31.3099C11.8218 31.3578 12.1021 31.2142 12.1489 30.9747L14.532 20.3909L26.6347 28.8196L25.8403 29.8253C24.5319 31.0226 24.2515 32.3156 24.0646 33.2735C23.9244 34.1355 23.831 34.3271 23.5039 34.4228C23.2702 34.4707 23.0833 34.7581 23.1768 34.9975C23.2235 35.237 23.4104 35.3807 23.644 35.3807C23.6908 35.3807 23.7375 35.3807 23.7375 35.3807C24.7188 35.1412 24.859 34.2792 24.9992 33.465C25.1861 32.603 25.373 31.5015 26.4945 30.4958L26.5412 30.4479L27.7094 29.0112C27.8029 28.9154 27.8496 28.7717 27.8029 28.6281C27.8029 28.4844 27.7094 28.3886 27.616 28.2928L14.4853 19.1936Z" fill="#009F65"/>
<path d="M36.7279 30.8789C35.7466 30.8789 35.5597 30.4958 35.1859 29.8253C34.8121 29.107 34.2981 28.1492 32.6626 27.6224L31.5878 27.2871C31.4944 27.2393 31.4476 27.1914 31.3542 27.0956C31.0738 26.8561 30.9336 26.473 30.9336 26.0899V22.0671C30.9336 21.7318 31.0271 21.4445 31.1205 21.1571C29.8121 21.1092 27.8963 21.3008 25.7468 21.636L19.1113 14.8356C19.0179 14.7398 18.831 14.6919 18.6908 14.6919C18.5506 14.7398 18.4104 14.8356 18.3637 14.9792L16.588 19.7683L17.3824 20.343L18.9712 16.0328L24.6253 21.8276C23.3169 22.0192 21.9618 22.3065 20.5599 22.546L27.9897 27.7182C28.2701 27.9097 28.457 28.1971 28.5037 28.5323C28.5037 28.6281 28.5037 28.676 28.5037 28.7718C29.2981 28.5802 30.0458 28.2928 30.7 27.9576L32.3355 28.4844C33.5971 28.9154 33.971 29.5859 34.3448 30.2564C34.7186 30.9747 35.1859 31.7889 36.7279 31.7889C37.0083 31.7889 37.1952 31.5973 37.1952 31.31C37.1952 31.0226 36.9616 30.8789 36.7279 30.8789Z" fill="#009F65"/>
<path d="M36.5411 23.0248C36.5411 23.3601 36.4943 23.6953 36.4009 23.9827C37.1018 24.2221 37.6158 24.5573 38.0364 25.2278C38.1298 25.3715 38.27 25.4673 38.4569 25.4673C38.5504 25.4673 38.5971 25.4673 38.6906 25.4194C38.9242 25.2757 38.9709 24.9884 38.8308 24.7489C38.2233 23.6953 37.4289 23.3122 36.5411 23.0248Z" fill="#009F65"/>
<path d="M34.6719 20.2951C35.0457 19.3851 35.8868 18.7626 36.8681 18.7626C37.1018 18.7626 37.3354 18.571 37.3354 18.2837C37.3354 17.9963 37.1018 17.8047 36.8681 17.8047C35.4196 17.8047 34.1579 18.8105 33.6906 20.1993H33.971C34.2514 20.1993 34.485 20.2472 34.6719 20.2951Z" fill="#009F65"/>
<path d="M38.9242 19.9119C37.756 19.6725 36.541 20.1035 35.7934 20.9655C36.027 21.205 36.214 21.4923 36.3541 21.7797C36.9149 21.0613 37.8494 20.6303 38.7373 20.8698C38.9709 20.9177 39.2513 20.774 39.298 20.4866C39.3448 20.1993 39.2046 19.9598 38.9242 19.9119Z" fill="#009F65"/>
</g>
<defs>
<clipPath id="clip0_27_3">
<rect width="47" height="50" fill="white"/>
</clipPath>
</defs>
</svg>
